%TF.GenerationSoftware,KiCad,Pcbnew,(6.0.6)*%
%TF.CreationDate,2022-11-01T15:20:43-07:00*%
%TF.ProjectId,PIC10F200 PCB,50494331-3046-4323-9030-205043422e6b,rev?*%
%TF.SameCoordinates,Original*%
%TF.FileFunction,Copper,L1,Top*%
%TF.FilePolarity,Positive*%
%FSLAX46Y46*%
G04 Gerber Fmt 4.6, Leading zero omitted, Abs format (unit mm)*
G04 Created by KiCad (PCBNEW (6.0.6)) date 2022-11-01 15:20:43*
%MOMM*%
%LPD*%
G01*
G04 APERTURE LIST*
%TA.AperFunction,Profile*%
%ADD10C,0.100000*%
%TD*%
%TA.AperFunction,ComponentPad*%
%ADD11R,1.498000X1.498000*%
%TD*%
%TA.AperFunction,ComponentPad*%
%ADD12C,1.498000*%
%TD*%
%TA.AperFunction,ComponentPad*%
%ADD13C,0.800000*%
%TD*%
%TA.AperFunction,ComponentPad*%
%ADD14C,7.000000*%
%TD*%
%TA.AperFunction,ComponentPad*%
%ADD15R,1.600000X1.600000*%
%TD*%
%TA.AperFunction,ComponentPad*%
%ADD16O,1.600000X1.600000*%
%TD*%
%TA.AperFunction,ComponentPad*%
%ADD17C,1.600000*%
%TD*%
%TA.AperFunction,ComponentPad*%
%ADD18R,1.800000X1.800000*%
%TD*%
%TA.AperFunction,ComponentPad*%
%ADD19C,1.800000*%
%TD*%
%TA.AperFunction,ComponentPad*%
%ADD20R,1.700000X1.700000*%
%TD*%
%TA.AperFunction,ComponentPad*%
%ADD21O,1.700000X1.700000*%
%TD*%
%TA.AperFunction,Conductor*%
%ADD22C,0.500000*%
%TD*%
G04 APERTURE END LIST*
D10*
X111000000Y-111000000D02*
G75*
G03*
X117000000Y-117000000I6000000J0D01*
G01*
X156000000Y-78000000D02*
G75*
G03*
X150000000Y-72000000I-6000000J0D01*
G01*
X150000000Y-117000000D02*
X117000000Y-117000000D01*
X150000000Y-117000000D02*
G75*
G03*
X156000000Y-111000000I0J6000000D01*
G01*
X117000000Y-72000000D02*
G75*
G03*
X111000000Y-78000000I0J-6000000D01*
G01*
X117000000Y-72000000D02*
X150000000Y-72000000D01*
X111000000Y-111000000D02*
X111000000Y-78000000D01*
X156000000Y-78000000D02*
X156000000Y-111000000D01*
D11*
%TO.P,SW1,1,A*%
%TO.N,Net-(R3-Pad2)*%
X124750000Y-75750000D03*
D12*
%TO.P,SW1,2,B*%
%TO.N,VSS*%
X131250000Y-75750000D03*
%TO.P,SW1,3*%
%TO.N,N/C*%
X124750000Y-80250000D03*
%TO.P,SW1,4*%
X131250000Y-80250000D03*
%TD*%
D13*
%TO.P,H3,1,1*%
%TO.N,VSS*%
X118856155Y-112856155D03*
D14*
X117000000Y-111000000D03*
D13*
X118856155Y-109143845D03*
X114375000Y-111000000D03*
X115143845Y-112856155D03*
X119625000Y-111000000D03*
X115143845Y-109143845D03*
X117000000Y-108375000D03*
X117000000Y-113625000D03*
%TD*%
D11*
%TO.P,SW2,1*%
%TO.N,N/C*%
X124750000Y-108750000D03*
D12*
%TO.P,SW2,2*%
X131250000Y-108750000D03*
%TO.P,SW2,3,A*%
%TO.N,Net-(R4-Pad2)*%
X124750000Y-113250000D03*
%TO.P,SW2,4,B*%
%TO.N,VSS*%
X131250000Y-113250000D03*
%TD*%
D15*
%TO.P,U1,1*%
%TO.N,N/C*%
X129200000Y-97800000D03*
D16*
%TO.P,U1,2,VDD*%
%TO.N,VDD*%
X131740000Y-97800000D03*
%TO.P,U1,3,GP2*%
%TO.N,GP2*%
X134280000Y-97800000D03*
%TO.P,U1,4,GP1*%
%TO.N,GP1*%
X136820000Y-97800000D03*
%TO.P,U1,5,GP0*%
%TO.N,GP0*%
X136820000Y-90180000D03*
%TO.P,U1,6*%
%TO.N,N/C*%
X134280000Y-90180000D03*
%TO.P,U1,7,VSS*%
%TO.N,VSS*%
X131740000Y-90180000D03*
%TO.P,U1,8,GP3*%
%TO.N,GP3*%
X129200000Y-90180000D03*
%TD*%
D17*
%TO.P,R1,1*%
%TO.N,GP1*%
X145000000Y-101620000D03*
D16*
%TO.P,R1,2*%
%TO.N,Net-(D1-Pad2)*%
X145000000Y-86380000D03*
%TD*%
D17*
%TO.P,R4,1*%
%TO.N,GP3*%
X140620000Y-104000000D03*
D16*
%TO.P,R4,2*%
%TO.N,Net-(R4-Pad2)*%
X125380000Y-104000000D03*
%TD*%
D13*
%TO.P,H1,1,1*%
%TO.N,VSS*%
X117000000Y-80525000D03*
D14*
X117000000Y-77900000D03*
D13*
X114375000Y-77900000D03*
X118856155Y-76043845D03*
X119625000Y-77900000D03*
X115143845Y-76043845D03*
X118856155Y-79756155D03*
X115143845Y-79756155D03*
X117000000Y-75275000D03*
%TD*%
D17*
%TO.P,R3,1*%
%TO.N,GP0*%
X140620000Y-85000000D03*
D16*
%TO.P,R3,2*%
%TO.N,Net-(R3-Pad2)*%
X125380000Y-85000000D03*
%TD*%
D18*
%TO.P,D1,1,K*%
%TO.N,VSS*%
X139000000Y-78000000D03*
D19*
%TO.P,D1,2,A*%
%TO.N,Net-(D1-Pad2)*%
X141540000Y-78000000D03*
%TD*%
D20*
%TO.P,J1,1,Pin_1*%
%TO.N,unconnected-(J1-Pad1)*%
X121600000Y-88000000D03*
D21*
%TO.P,J1,2,Pin_2*%
%TO.N,GP1*%
X121600000Y-90540000D03*
%TO.P,J1,3,Pin_3*%
%TO.N,GP0*%
X121600000Y-93080000D03*
%TO.P,J1,4,Pin_4*%
%TO.N,VSS*%
X121600000Y-95620000D03*
%TO.P,J1,5,Pin_5*%
%TO.N,VDD*%
X121600000Y-98160000D03*
%TO.P,J1,6,Pin_6*%
%TO.N,GP3*%
X121600000Y-100700000D03*
%TD*%
D13*
%TO.P,H4,1,1*%
%TO.N,VSS*%
X148143845Y-109143845D03*
X152625000Y-111000000D03*
X150000000Y-113625000D03*
X151856155Y-109143845D03*
X148143845Y-112856155D03*
X147375000Y-111000000D03*
X151856155Y-112856155D03*
D14*
X150000000Y-111000000D03*
D13*
X150000000Y-108375000D03*
%TD*%
%TO.P,H2,1,1*%
%TO.N,VSS*%
X151856155Y-79756155D03*
X150000000Y-80525000D03*
X147375000Y-77900000D03*
X148143845Y-79756155D03*
X152625000Y-77900000D03*
X148143845Y-76043845D03*
D14*
X150000000Y-77900000D03*
D13*
X150000000Y-75275000D03*
X151856155Y-76043845D03*
%TD*%
D18*
%TO.P,D2,1,K*%
%TO.N,VSS*%
X139000000Y-111000000D03*
D19*
%TO.P,D2,2,A*%
%TO.N,Net-(D2-Pad2)*%
X141540000Y-111000000D03*
%TD*%
D17*
%TO.P,R2,1*%
%TO.N,GP2*%
X151000000Y-86380000D03*
D16*
%TO.P,R2,2*%
%TO.N,Net-(D2-Pad2)*%
X151000000Y-101620000D03*
%TD*%
D22*
%TO.N,Net-(D1-Pad2)*%
X145000000Y-86380000D02*
X145000000Y-81460000D01*
X145000000Y-81460000D02*
X141540000Y-78000000D01*
%TO.N,Net-(D2-Pad2)*%
X150920000Y-101620000D02*
X151000000Y-101620000D01*
X141540000Y-111000000D02*
X150920000Y-101620000D01*
%TO.N,GP1*%
X121000000Y-104000000D02*
X122000000Y-104000000D01*
X132620000Y-102000000D02*
X136820000Y-97800000D01*
X119000000Y-93140000D02*
X119000000Y-102000000D01*
X119000000Y-102000000D02*
X121000000Y-104000000D01*
X121600000Y-90540000D02*
X119000000Y-93140000D01*
X136820000Y-97800000D02*
X141180000Y-97800000D01*
X141180000Y-97800000D02*
X145000000Y-101620000D01*
X124000000Y-102000000D02*
X132620000Y-102000000D01*
X122000000Y-104000000D02*
X124000000Y-102000000D01*
%TO.N,GP0*%
X121600000Y-93080000D02*
X133920000Y-93080000D01*
X136820000Y-90180000D02*
X136820000Y-88800000D01*
X136820000Y-88800000D02*
X140620000Y-85000000D01*
X133920000Y-93080000D02*
X136820000Y-90180000D01*
%TO.N,VDD*%
X129540000Y-100000000D02*
X123440000Y-100000000D01*
X123440000Y-100000000D02*
X121600000Y-98160000D01*
X131740000Y-97800000D02*
X129540000Y-100000000D01*
%TO.N,GP2*%
X139080000Y-93000000D02*
X144380000Y-93000000D01*
X144380000Y-93000000D02*
X151000000Y-86380000D01*
X134280000Y-97800000D02*
X139080000Y-93000000D01*
%TO.N,Net-(R3-Pad2)*%
X127000000Y-78000000D02*
X127000000Y-83380000D01*
X127000000Y-83380000D02*
X125380000Y-85000000D01*
X124750000Y-75750000D02*
X127000000Y-78000000D01*
%TO.N,Net-(R4-Pad2)*%
X127000000Y-105620000D02*
X127000000Y-111000000D01*
X127000000Y-111000000D02*
X124750000Y-113250000D01*
X125380000Y-104000000D02*
X127000000Y-105620000D01*
%TD*%
M02*
