%TF.GenerationSoftware,KiCad,Pcbnew,(6.0.6)*%
%TF.CreationDate,2023-02-06T16:25:43-08:00*%
%TF.ProjectId,PIC10F200 PCB,50494331-3046-4323-9030-205043422e6b,rev?*%
%TF.SameCoordinates,Original*%
%TF.FileFunction,Copper,L2,Bot*%
%TF.FilePolarity,Positive*%
%FSLAX46Y46*%
G04 Gerber Fmt 4.6, Leading zero omitted, Abs format (unit mm)*
G04 Created by KiCad (PCBNEW (6.0.6)) date 2023-02-06 16:25:43*
%MOMM*%
%LPD*%
G01*
G04 APERTURE LIST*
%TA.AperFunction,Profile*%
%ADD10C,0.100000*%
%TD*%
%TA.AperFunction,ComponentPad*%
%ADD11R,1.498000X1.498000*%
%TD*%
%TA.AperFunction,ComponentPad*%
%ADD12C,1.498000*%
%TD*%
%TA.AperFunction,ComponentPad*%
%ADD13C,0.800000*%
%TD*%
%TA.AperFunction,ComponentPad*%
%ADD14C,7.000000*%
%TD*%
%TA.AperFunction,ComponentPad*%
%ADD15R,1.600000X1.600000*%
%TD*%
%TA.AperFunction,ComponentPad*%
%ADD16O,1.600000X1.600000*%
%TD*%
%TA.AperFunction,ComponentPad*%
%ADD17C,1.600000*%
%TD*%
%TA.AperFunction,ComponentPad*%
%ADD18R,1.800000X1.800000*%
%TD*%
%TA.AperFunction,ComponentPad*%
%ADD19C,1.800000*%
%TD*%
%TA.AperFunction,ComponentPad*%
%ADD20R,1.700000X1.700000*%
%TD*%
%TA.AperFunction,ComponentPad*%
%ADD21O,1.700000X1.700000*%
%TD*%
%TA.AperFunction,Conductor*%
%ADD22C,0.500000*%
%TD*%
G04 APERTURE END LIST*
D10*
X111000000Y-111000000D02*
G75*
G03*
X117000000Y-117000000I6000000J0D01*
G01*
X156000000Y-78000000D02*
G75*
G03*
X150000000Y-72000000I-6000000J0D01*
G01*
X150000000Y-117000000D02*
X117000000Y-117000000D01*
X150000000Y-117000000D02*
G75*
G03*
X156000000Y-111000000I0J6000000D01*
G01*
X117000000Y-72000000D02*
G75*
G03*
X111000000Y-78000000I0J-6000000D01*
G01*
X117000000Y-72000000D02*
X150000000Y-72000000D01*
X111000000Y-111000000D02*
X111000000Y-78000000D01*
X156000000Y-78000000D02*
X156000000Y-111000000D01*
D11*
%TO.P,SW1,1,A*%
%TO.N,Net-(R3-Pad2)*%
X124750000Y-75750000D03*
D12*
%TO.P,SW1,2,B*%
%TO.N,VSS*%
X131250000Y-75750000D03*
%TO.P,SW1,3*%
%TO.N,N/C*%
X124750000Y-80250000D03*
%TO.P,SW1,4*%
X131250000Y-80250000D03*
%TD*%
D13*
%TO.P,H3,1,1*%
%TO.N,VSS*%
X118856155Y-112856155D03*
D14*
X117000000Y-111000000D03*
D13*
X118856155Y-109143845D03*
X114375000Y-111000000D03*
X115143845Y-112856155D03*
X119625000Y-111000000D03*
X115143845Y-109143845D03*
X117000000Y-108375000D03*
X117000000Y-113625000D03*
%TD*%
D11*
%TO.P,SW2,1*%
%TO.N,N/C*%
X124750000Y-108750000D03*
D12*
%TO.P,SW2,2*%
X131250000Y-108750000D03*
%TO.P,SW2,3,A*%
%TO.N,Net-(R4-Pad2)*%
X124750000Y-113250000D03*
%TO.P,SW2,4,B*%
%TO.N,VSS*%
X131250000Y-113250000D03*
%TD*%
D15*
%TO.P,U1,1*%
%TO.N,N/C*%
X129200000Y-97800000D03*
D16*
%TO.P,U1,2,VDD*%
%TO.N,VDD*%
X131740000Y-97800000D03*
%TO.P,U1,3,GP2*%
%TO.N,GP2*%
X134280000Y-97800000D03*
%TO.P,U1,4,GP1*%
%TO.N,GP1*%
X136820000Y-97800000D03*
%TO.P,U1,5,GP0*%
%TO.N,GP0*%
X136820000Y-90180000D03*
%TO.P,U1,6*%
%TO.N,N/C*%
X134280000Y-90180000D03*
%TO.P,U1,7,VSS*%
%TO.N,VSS*%
X131740000Y-90180000D03*
%TO.P,U1,8,GP3*%
%TO.N,GP3*%
X129200000Y-90180000D03*
%TD*%
D17*
%TO.P,R1,1*%
%TO.N,GP1*%
X145000000Y-101620000D03*
D16*
%TO.P,R1,2*%
%TO.N,Net-(D1-Pad2)*%
X145000000Y-86380000D03*
%TD*%
D17*
%TO.P,R4,1*%
%TO.N,GP3*%
X140620000Y-104000000D03*
D16*
%TO.P,R4,2*%
%TO.N,Net-(R4-Pad2)*%
X125380000Y-104000000D03*
%TD*%
D13*
%TO.P,H1,1,1*%
%TO.N,VSS*%
X117000000Y-80525000D03*
D14*
X117000000Y-77900000D03*
D13*
X114375000Y-77900000D03*
X118856155Y-76043845D03*
X119625000Y-77900000D03*
X115143845Y-76043845D03*
X118856155Y-79756155D03*
X115143845Y-79756155D03*
X117000000Y-75275000D03*
%TD*%
D17*
%TO.P,R3,1*%
%TO.N,GP0*%
X140620000Y-85000000D03*
D16*
%TO.P,R3,2*%
%TO.N,Net-(R3-Pad2)*%
X125380000Y-85000000D03*
%TD*%
D18*
%TO.P,D1,1,K*%
%TO.N,VSS*%
X139000000Y-78000000D03*
D19*
%TO.P,D1,2,A*%
%TO.N,Net-(D1-Pad2)*%
X141540000Y-78000000D03*
%TD*%
D20*
%TO.P,J1,1,Pin_1*%
%TO.N,unconnected-(J1-Pad1)*%
X121600000Y-88000000D03*
D21*
%TO.P,J1,2,Pin_2*%
%TO.N,GP1*%
X121600000Y-90540000D03*
%TO.P,J1,3,Pin_3*%
%TO.N,GP0*%
X121600000Y-93080000D03*
%TO.P,J1,4,Pin_4*%
%TO.N,VSS*%
X121600000Y-95620000D03*
%TO.P,J1,5,Pin_5*%
%TO.N,VDD*%
X121600000Y-98160000D03*
%TO.P,J1,6,Pin_6*%
%TO.N,GP3*%
X121600000Y-100700000D03*
%TD*%
D13*
%TO.P,H4,1,1*%
%TO.N,VSS*%
X148143845Y-109143845D03*
X152625000Y-111000000D03*
X150000000Y-113625000D03*
X151856155Y-109143845D03*
X148143845Y-112856155D03*
X147375000Y-111000000D03*
X151856155Y-112856155D03*
D14*
X150000000Y-111000000D03*
D13*
X150000000Y-108375000D03*
%TD*%
%TO.P,H2,1,1*%
%TO.N,VSS*%
X151856155Y-79756155D03*
X150000000Y-80525000D03*
X147375000Y-77900000D03*
X148143845Y-79756155D03*
X152625000Y-77900000D03*
X148143845Y-76043845D03*
D14*
X150000000Y-77900000D03*
D13*
X150000000Y-75275000D03*
X151856155Y-76043845D03*
%TD*%
D18*
%TO.P,D2,1,K*%
%TO.N,VSS*%
X139000000Y-111000000D03*
D19*
%TO.P,D2,2,A*%
%TO.N,Net-(D2-Pad2)*%
X141540000Y-111000000D03*
%TD*%
D17*
%TO.P,R2,1*%
%TO.N,GP2*%
X151000000Y-86380000D03*
D16*
%TO.P,R2,2*%
%TO.N,Net-(D2-Pad2)*%
X151000000Y-101620000D03*
%TD*%
D22*
%TO.N,GP3*%
X138000000Y-95000000D02*
X134000000Y-95000000D01*
X121600000Y-100700000D02*
X121600000Y-100400000D01*
X140620000Y-97620000D02*
X138000000Y-95000000D01*
X140620000Y-104000000D02*
X140620000Y-97620000D01*
X127300000Y-95000000D02*
X131000000Y-95000000D01*
X121600000Y-100700000D02*
X127300000Y-95000000D01*
X129200000Y-90180000D02*
X134000000Y-94980000D01*
X134000000Y-95000000D02*
X131000000Y-95000000D01*
X134000000Y-94980000D02*
X134000000Y-95000000D01*
%TD*%
%TA.AperFunction,Conductor*%
%TO.N,VSS*%
G36*
X149970018Y-72510000D02*
G01*
X149984851Y-72512310D01*
X149984855Y-72512310D01*
X149993724Y-72513691D01*
X150014664Y-72510953D01*
X150036202Y-72509997D01*
X150224026Y-72517766D01*
X150448278Y-72527041D01*
X150458656Y-72527901D01*
X150734674Y-72562307D01*
X150898702Y-72582753D01*
X150908967Y-72584465D01*
X151072054Y-72618661D01*
X151342976Y-72675467D01*
X151353072Y-72678023D01*
X151778101Y-72804561D01*
X151787938Y-72807938D01*
X152201081Y-72969147D01*
X152210581Y-72973314D01*
X152608983Y-73168081D01*
X152618141Y-73173037D01*
X152999085Y-73400030D01*
X153007804Y-73405726D01*
X153368705Y-73663405D01*
X153376923Y-73669801D01*
X153715326Y-73956413D01*
X153722987Y-73963467D01*
X154036533Y-74277013D01*
X154043587Y-74284674D01*
X154330199Y-74623077D01*
X154336595Y-74631295D01*
X154594274Y-74992196D01*
X154599970Y-75000915D01*
X154751692Y-75255537D01*
X154826963Y-75381859D01*
X154831918Y-75391015D01*
X155012099Y-75759580D01*
X155026682Y-75789411D01*
X155030853Y-75798919D01*
X155192062Y-76212062D01*
X155195439Y-76221899D01*
X155321977Y-76646928D01*
X155324533Y-76657024D01*
X155392756Y-76982394D01*
X155415534Y-77091030D01*
X155417247Y-77101298D01*
X155422322Y-77142009D01*
X155472099Y-77541344D01*
X155472959Y-77551722D01*
X155487487Y-77902965D01*
X155489694Y-77956335D01*
X155488302Y-77980920D01*
X155486309Y-77993724D01*
X155487473Y-78002626D01*
X155487473Y-78002628D01*
X155490436Y-78025283D01*
X155491500Y-78041621D01*
X155491500Y-110950633D01*
X155490000Y-110970018D01*
X155487690Y-110984851D01*
X155487690Y-110984855D01*
X155486309Y-110993724D01*
X155489047Y-111014659D01*
X155490003Y-111036202D01*
X155486947Y-111110085D01*
X155472959Y-111448278D01*
X155472099Y-111458656D01*
X155417248Y-111898698D01*
X155415535Y-111908967D01*
X155362815Y-112160401D01*
X155324533Y-112342976D01*
X155321977Y-112353072D01*
X155195439Y-112778101D01*
X155192062Y-112787938D01*
X155030853Y-113201081D01*
X155026686Y-113210581D01*
X154944113Y-113379486D01*
X154831919Y-113608983D01*
X154826964Y-113618139D01*
X154789070Y-113681733D01*
X154599970Y-113999085D01*
X154594274Y-114007804D01*
X154336595Y-114368705D01*
X154330199Y-114376923D01*
X154043587Y-114715326D01*
X154036533Y-114722987D01*
X153722987Y-115036533D01*
X153715326Y-115043587D01*
X153376923Y-115330199D01*
X153368705Y-115336595D01*
X153007804Y-115594274D01*
X152999085Y-115599970D01*
X152618141Y-115826963D01*
X152608985Y-115831918D01*
X152210581Y-116026686D01*
X152201081Y-116030853D01*
X151787938Y-116192062D01*
X151778101Y-116195439D01*
X151353072Y-116321977D01*
X151342975Y-116324533D01*
X150908967Y-116415535D01*
X150898702Y-116417247D01*
X150734674Y-116437693D01*
X150458656Y-116472099D01*
X150448278Y-116472959D01*
X150270676Y-116480305D01*
X150043661Y-116489694D01*
X150019080Y-116488302D01*
X150006276Y-116486309D01*
X149997374Y-116487473D01*
X149997372Y-116487473D01*
X149982323Y-116489441D01*
X149974714Y-116490436D01*
X149958379Y-116491500D01*
X117049367Y-116491500D01*
X117029982Y-116490000D01*
X117015149Y-116487690D01*
X117015145Y-116487690D01*
X117006276Y-116486309D01*
X116985336Y-116489047D01*
X116963798Y-116490003D01*
X116775974Y-116482234D01*
X116551722Y-116472959D01*
X116541344Y-116472099D01*
X116265326Y-116437693D01*
X116101298Y-116417247D01*
X116091033Y-116415535D01*
X115657025Y-116324533D01*
X115646928Y-116321977D01*
X115221899Y-116195439D01*
X115212062Y-116192062D01*
X114798919Y-116030853D01*
X114789419Y-116026686D01*
X114391015Y-115831918D01*
X114381859Y-115826963D01*
X114000915Y-115599970D01*
X113992196Y-115594274D01*
X113631295Y-115336595D01*
X113623077Y-115330199D01*
X113284674Y-115043587D01*
X113277013Y-115036533D01*
X112963467Y-114722987D01*
X112956413Y-114715326D01*
X112669801Y-114376923D01*
X112663405Y-114368705D01*
X112407727Y-114010607D01*
X114354933Y-114010607D01*
X114354988Y-114011386D01*
X114360342Y-114019436D01*
X114396960Y-114053821D01*
X114401638Y-114057803D01*
X114707386Y-114293260D01*
X114712429Y-114296765D01*
X115039694Y-114501262D01*
X115045051Y-114504256D01*
X115390709Y-114675843D01*
X115396349Y-114678307D01*
X115757076Y-114815334D01*
X115762948Y-114817242D01*
X116135344Y-114918420D01*
X116141321Y-114919734D01*
X116521843Y-114984095D01*
X116527929Y-114984820D01*
X116912896Y-115011740D01*
X116919032Y-115011868D01*
X117304787Y-115001093D01*
X117310918Y-115000621D01*
X117693755Y-114952257D01*
X117699828Y-114951187D01*
X118076135Y-114865692D01*
X118082050Y-114864040D01*
X118448215Y-114742234D01*
X118453949Y-114740010D01*
X118806497Y-114583046D01*
X118811966Y-114580283D01*
X119147516Y-114389664D01*
X119152690Y-114386380D01*
X119468034Y-114163929D01*
X119472872Y-114160149D01*
X119635240Y-114019998D01*
X119643655Y-114006958D01*
X119637716Y-113996926D01*
X117012812Y-111372022D01*
X116998868Y-111364408D01*
X116997035Y-111364539D01*
X116990420Y-111368790D01*
X114362547Y-113996663D01*
X114354933Y-114010607D01*
X112407727Y-114010607D01*
X112405726Y-114007804D01*
X112400030Y-113999085D01*
X112210930Y-113681733D01*
X112173036Y-113618139D01*
X112168081Y-113608983D01*
X112055887Y-113379486D01*
X111973314Y-113210581D01*
X111969147Y-113201081D01*
X111807938Y-112787938D01*
X111804561Y-112778101D01*
X111678023Y-112353072D01*
X111675467Y-112342976D01*
X111637185Y-112160401D01*
X111584465Y-111908967D01*
X111582752Y-111898698D01*
X111527901Y-111458656D01*
X111527041Y-111448278D01*
X111510462Y-111047439D01*
X111512100Y-111021329D01*
X111512769Y-111017351D01*
X111512770Y-111017345D01*
X111513576Y-111012552D01*
X111513729Y-111000000D01*
X111509773Y-110972376D01*
X111508500Y-110954514D01*
X111508500Y-110947061D01*
X112987665Y-110947061D01*
X113001132Y-111332706D01*
X113001647Y-111338838D01*
X113052685Y-111721347D01*
X113053792Y-111727383D01*
X113141913Y-112103090D01*
X113143608Y-112109000D01*
X113267968Y-112474306D01*
X113270235Y-112480031D01*
X113429643Y-112831444D01*
X113432465Y-112836934D01*
X113625407Y-113171119D01*
X113628737Y-113176287D01*
X113853375Y-113490059D01*
X113857197Y-113494881D01*
X113980033Y-113635195D01*
X113993247Y-113643593D01*
X114003043Y-113637747D01*
X116627978Y-111012812D01*
X116634356Y-111001132D01*
X117364408Y-111001132D01*
X117364539Y-111002965D01*
X117368790Y-111009580D01*
X119997364Y-113638154D01*
X120011308Y-113645768D01*
X120012323Y-113645696D01*
X120020054Y-113640593D01*
X120035567Y-113624302D01*
X120039595Y-113619637D01*
X120277168Y-113315558D01*
X120280722Y-113310518D01*
X120319128Y-113250000D01*
X123487697Y-113250000D01*
X123506874Y-113469197D01*
X123508298Y-113474510D01*
X123552800Y-113640593D01*
X123563823Y-113681733D01*
X123656814Y-113881151D01*
X123783020Y-114061393D01*
X123938607Y-114216980D01*
X123943115Y-114220137D01*
X123943118Y-114220139D01*
X124073537Y-114311459D01*
X124118848Y-114343186D01*
X124123830Y-114345509D01*
X124123835Y-114345512D01*
X124312275Y-114433383D01*
X124318267Y-114436177D01*
X124323575Y-114437599D01*
X124323577Y-114437600D01*
X124389683Y-114455313D01*
X124530803Y-114493126D01*
X124750000Y-114512303D01*
X124969197Y-114493126D01*
X125110317Y-114455313D01*
X125176423Y-114437600D01*
X125176425Y-114437599D01*
X125181733Y-114436177D01*
X125187725Y-114433383D01*
X125376165Y-114345512D01*
X125376170Y-114345509D01*
X125381152Y-114343186D01*
X125426463Y-114311459D01*
X125443622Y-114299444D01*
X130565110Y-114299444D01*
X130574406Y-114311459D01*
X130614594Y-114339599D01*
X130624084Y-114345077D01*
X130813456Y-114433383D01*
X130823748Y-114437129D01*
X131025575Y-114491208D01*
X131036370Y-114493111D01*
X131244525Y-114511323D01*
X131255475Y-114511323D01*
X131463630Y-114493111D01*
X131474425Y-114491208D01*
X131676252Y-114437129D01*
X131686544Y-114433383D01*
X131875916Y-114345077D01*
X131885406Y-114339599D01*
X131926432Y-114310872D01*
X131934806Y-114300396D01*
X131927740Y-114286951D01*
X131651396Y-114010607D01*
X147354933Y-114010607D01*
X147354988Y-114011386D01*
X147360342Y-114019436D01*
X147396960Y-114053821D01*
X147401638Y-114057803D01*
X147707386Y-114293260D01*
X147712429Y-114296765D01*
X148039694Y-114501262D01*
X148045051Y-114504256D01*
X148390709Y-114675843D01*
X148396349Y-114678307D01*
X148757076Y-114815334D01*
X148762948Y-114817242D01*
X149135344Y-114918420D01*
X149141321Y-114919734D01*
X149521843Y-114984095D01*
X149527929Y-114984820D01*
X149912896Y-115011740D01*
X149919032Y-115011868D01*
X150304787Y-115001093D01*
X150310918Y-115000621D01*
X150693755Y-114952257D01*
X150699828Y-114951187D01*
X151076135Y-114865692D01*
X151082050Y-114864040D01*
X151448215Y-114742234D01*
X151453949Y-114740010D01*
X151806497Y-114583046D01*
X151811966Y-114580283D01*
X152147516Y-114389664D01*
X152152690Y-114386380D01*
X152468034Y-114163929D01*
X152472872Y-114160149D01*
X152635240Y-114019998D01*
X152643655Y-114006958D01*
X152637716Y-113996926D01*
X150012812Y-111372022D01*
X149998868Y-111364408D01*
X149997035Y-111364539D01*
X149990420Y-111368790D01*
X147362547Y-113996663D01*
X147354933Y-114010607D01*
X131651396Y-114010607D01*
X131262811Y-113622021D01*
X131248868Y-113614408D01*
X131247034Y-113614539D01*
X131240420Y-113618790D01*
X130571537Y-114287674D01*
X130565110Y-114299444D01*
X125443622Y-114299444D01*
X125556882Y-114220139D01*
X125556885Y-114220137D01*
X125561393Y-114216980D01*
X125716980Y-114061393D01*
X125843186Y-113881151D01*
X125936177Y-113681733D01*
X125947201Y-113640593D01*
X125991702Y-113474510D01*
X125993126Y-113469197D01*
X126011824Y-113255475D01*
X129988677Y-113255475D01*
X130006889Y-113463630D01*
X130008792Y-113474425D01*
X130062871Y-113676252D01*
X130066617Y-113686544D01*
X130154923Y-113875916D01*
X130160401Y-113885406D01*
X130189128Y-113926432D01*
X130199604Y-113934806D01*
X130213049Y-113927740D01*
X130877979Y-113262811D01*
X130884356Y-113251132D01*
X131614408Y-113251132D01*
X131614539Y-113252966D01*
X131618790Y-113259580D01*
X132287674Y-113928463D01*
X132299444Y-113934890D01*
X132311459Y-113925594D01*
X132339599Y-113885406D01*
X132345077Y-113875916D01*
X132433383Y-113686544D01*
X132437129Y-113676252D01*
X132491208Y-113474425D01*
X132493111Y-113463630D01*
X132511323Y-113255475D01*
X132511323Y-113244525D01*
X132493111Y-113036370D01*
X132491208Y-113025575D01*
X132437129Y-112823748D01*
X132433383Y-112813456D01*
X132345077Y-112624084D01*
X132339599Y-112614594D01*
X132310872Y-112573568D01*
X132300396Y-112565194D01*
X132286951Y-112572260D01*
X131622021Y-113237189D01*
X131614408Y-113251132D01*
X130884356Y-113251132D01*
X130885592Y-113248868D01*
X130885461Y-113247034D01*
X130881210Y-113240420D01*
X130212326Y-112571537D01*
X130200556Y-112565110D01*
X130188541Y-112574406D01*
X130160401Y-112614594D01*
X130154923Y-112624084D01*
X130066617Y-112813456D01*
X130062871Y-112823748D01*
X130008792Y-113025575D01*
X130006889Y-113036370D01*
X129988677Y-113244525D01*
X129988677Y-113255475D01*
X126011824Y-113255475D01*
X126012303Y-113250000D01*
X125993126Y-113030803D01*
X125936177Y-112818267D01*
X125917447Y-112778101D01*
X125845509Y-112623830D01*
X125845507Y-112623827D01*
X125843186Y-112618849D01*
X125716980Y-112438607D01*
X125561393Y-112283020D01*
X125556885Y-112279863D01*
X125556882Y-112279861D01*
X125442263Y-112199604D01*
X130565194Y-112199604D01*
X130572260Y-112213049D01*
X131237189Y-112877979D01*
X131251132Y-112885592D01*
X131252966Y-112885461D01*
X131259580Y-112881210D01*
X131928463Y-112212326D01*
X131934890Y-112200556D01*
X131925594Y-112188541D01*
X131885406Y-112160401D01*
X131875916Y-112154923D01*
X131686544Y-112066617D01*
X131676252Y-112062871D01*
X131474425Y-112008792D01*
X131463630Y-112006889D01*
X131255475Y-111988677D01*
X131244525Y-111988677D01*
X131036370Y-112006889D01*
X131025575Y-112008792D01*
X130823748Y-112062871D01*
X130813456Y-112066617D01*
X130624084Y-112154923D01*
X130614594Y-112160401D01*
X130573568Y-112189128D01*
X130565194Y-112199604D01*
X125442263Y-112199604D01*
X125385661Y-112159971D01*
X125385658Y-112159969D01*
X125381152Y-112156814D01*
X125376170Y-112154491D01*
X125376165Y-112154488D01*
X125186715Y-112066146D01*
X125186713Y-112066145D01*
X125181733Y-112063823D01*
X125176425Y-112062401D01*
X125176423Y-112062400D01*
X125048510Y-112028126D01*
X124969197Y-112006874D01*
X124750000Y-111987697D01*
X124530803Y-112006874D01*
X124451490Y-112028126D01*
X124323577Y-112062400D01*
X124323575Y-112062401D01*
X124318267Y-112063823D01*
X124313287Y-112066145D01*
X124313285Y-112066146D01*
X124123830Y-112154491D01*
X124123827Y-112154493D01*
X124118849Y-112156814D01*
X123938607Y-112283020D01*
X123783020Y-112438607D01*
X123656814Y-112618849D01*
X123654493Y-112623827D01*
X123654491Y-112623830D01*
X123582553Y-112778101D01*
X123563823Y-112818267D01*
X123506874Y-113030803D01*
X123487697Y-113250000D01*
X120319128Y-113250000D01*
X120487486Y-112984712D01*
X120490529Y-112979356D01*
X120664520Y-112634910D01*
X120667016Y-112629306D01*
X120806568Y-112269518D01*
X120808509Y-112263684D01*
X120897579Y-111944669D01*
X137592001Y-111944669D01*
X137592371Y-111951490D01*
X137597895Y-112002352D01*
X137601521Y-112017604D01*
X137646676Y-112138054D01*
X137655214Y-112153649D01*
X137731715Y-112255724D01*
X137744276Y-112268285D01*
X137846351Y-112344786D01*
X137861946Y-112353324D01*
X137982394Y-112398478D01*
X137997649Y-112402105D01*
X138048514Y-112407631D01*
X138055328Y-112408000D01*
X138727885Y-112408000D01*
X138743124Y-112403525D01*
X138744329Y-112402135D01*
X138746000Y-112394452D01*
X138746000Y-112389884D01*
X139254000Y-112389884D01*
X139258475Y-112405123D01*
X139259865Y-112406328D01*
X139267548Y-112407999D01*
X139944669Y-112407999D01*
X139951490Y-112407629D01*
X140002352Y-112402105D01*
X140017604Y-112398479D01*
X140138054Y-112353324D01*
X140153649Y-112344786D01*
X140255724Y-112268285D01*
X140268285Y-112255724D01*
X140344786Y-112153649D01*
X140353324Y-112138054D01*
X140374773Y-112080840D01*
X140417415Y-112024075D01*
X140483977Y-111999376D01*
X140553325Y-112014584D01*
X140573240Y-112028126D01*
X140729349Y-112157730D01*
X140929322Y-112274584D01*
X140934147Y-112276426D01*
X140934148Y-112276427D01*
X140961613Y-112286915D01*
X141145694Y-112357209D01*
X141150760Y-112358240D01*
X141150761Y-112358240D01*
X141203846Y-112369040D01*
X141372656Y-112403385D01*
X141503324Y-112408176D01*
X141598949Y-112411683D01*
X141598953Y-112411683D01*
X141604113Y-112411872D01*
X141609233Y-112411216D01*
X141609235Y-112411216D01*
X141708668Y-112398478D01*
X141833847Y-112382442D01*
X141838795Y-112380957D01*
X141838802Y-112380956D01*
X142050747Y-112317369D01*
X142055690Y-112315886D01*
X142060324Y-112313616D01*
X142259049Y-112216262D01*
X142259052Y-112216260D01*
X142263684Y-112213991D01*
X142452243Y-112079494D01*
X142616303Y-111916005D01*
X142751458Y-111727917D01*
X142854078Y-111520280D01*
X142921408Y-111298671D01*
X142951640Y-111069041D01*
X142952168Y-111047439D01*
X142953245Y-111003365D01*
X142953245Y-111003361D01*
X142953327Y-111000000D01*
X142948975Y-110947061D01*
X145987665Y-110947061D01*
X146001132Y-111332706D01*
X146001647Y-111338838D01*
X146052685Y-111721347D01*
X146053792Y-111727383D01*
X146141913Y-112103090D01*
X146143608Y-112109000D01*
X146267968Y-112474306D01*
X146270235Y-112480031D01*
X146429643Y-112831444D01*
X146432465Y-112836934D01*
X146625407Y-113171119D01*
X146628737Y-113176287D01*
X146853375Y-113490059D01*
X146857197Y-113494881D01*
X146980033Y-113635195D01*
X146993247Y-113643593D01*
X147003043Y-113637747D01*
X149627978Y-111012812D01*
X149634356Y-111001132D01*
X150364408Y-111001132D01*
X150364539Y-111002965D01*
X150368790Y-111009580D01*
X152997364Y-113638154D01*
X153011308Y-113645768D01*
X153012323Y-113645696D01*
X153020054Y-113640593D01*
X153035567Y-113624302D01*
X153039595Y-113619637D01*
X153277168Y-113315558D01*
X153280722Y-113310518D01*
X153487486Y-112984712D01*
X153490529Y-112979356D01*
X153664520Y-112634910D01*
X153667016Y-112629306D01*
X153806568Y-112269518D01*
X153808509Y-112263684D01*
X153912288Y-111891988D01*
X153913644Y-111886017D01*
X153980660Y-111505959D01*
X153981427Y-111499886D01*
X154011119Y-111114000D01*
X154011296Y-111110085D01*
X154012806Y-111001974D01*
X154012738Y-110998030D01*
X153993832Y-110611489D01*
X153993231Y-110605365D01*
X153936862Y-110223631D01*
X153935662Y-110217569D01*
X153842312Y-109843165D01*
X153840527Y-109837250D01*
X153711082Y-109473727D01*
X153708739Y-109468043D01*
X153544434Y-109118877D01*
X153541545Y-109113443D01*
X153343955Y-108781983D01*
X153340547Y-108776853D01*
X153111547Y-108466244D01*
X153107667Y-108461487D01*
X153020318Y-108364475D01*
X153006797Y-108356145D01*
X153006720Y-108356146D01*
X152997434Y-108361776D01*
X150372022Y-110987188D01*
X150364408Y-111001132D01*
X149634356Y-111001132D01*
X149635592Y-110998868D01*
X149635461Y-110997035D01*
X149631210Y-110990420D01*
X147003902Y-108363112D01*
X146989958Y-108355498D01*
X146989412Y-108355537D01*
X146981055Y-108361136D01*
X146928077Y-108418347D01*
X146924132Y-108423049D01*
X146690821Y-108730426D01*
X146687343Y-108735504D01*
X146485141Y-109064179D01*
X146482176Y-109069572D01*
X146313014Y-109416406D01*
X146310588Y-109422064D01*
X146176076Y-109783758D01*
X146174218Y-109789615D01*
X146075640Y-110162718D01*
X146074365Y-110168718D01*
X146012667Y-110549648D01*
X146011980Y-110555776D01*
X145987751Y-110940886D01*
X145987665Y-110947061D01*
X142948975Y-110947061D01*
X142947032Y-110923434D01*
X142934773Y-110774318D01*
X142934772Y-110774312D01*
X142934349Y-110769167D01*
X142900797Y-110635592D01*
X142879184Y-110549544D01*
X142879183Y-110549540D01*
X142877925Y-110544533D01*
X142785570Y-110332131D01*
X142659764Y-110137665D01*
X142503887Y-109966358D01*
X142499836Y-109963159D01*
X142499832Y-109963155D01*
X142326177Y-109826011D01*
X142326172Y-109826008D01*
X142322123Y-109822810D01*
X142317607Y-109820317D01*
X142317604Y-109820315D01*
X142123879Y-109713373D01*
X142123875Y-109713371D01*
X142119355Y-109710876D01*
X142114486Y-109709152D01*
X142114482Y-109709150D01*
X141905903Y-109635288D01*
X141905899Y-109635287D01*
X141901028Y-109633562D01*
X141895935Y-109632655D01*
X141895932Y-109632654D01*
X141678095Y-109593851D01*
X141678089Y-109593850D01*
X141673006Y-109592945D01*
X141595644Y-109592000D01*
X141446581Y-109590179D01*
X141446579Y-109590179D01*
X141441411Y-109590116D01*
X141212464Y-109625150D01*
X140992314Y-109697106D01*
X140987726Y-109699494D01*
X140987722Y-109699496D01*
X140814605Y-109789615D01*
X140786872Y-109804052D01*
X140782739Y-109807155D01*
X140782736Y-109807157D01*
X140605790Y-109940012D01*
X140601655Y-109943117D01*
X140595446Y-109949615D01*
X140583787Y-109961815D01*
X140522263Y-109997245D01*
X140451351Y-109993788D01*
X140393564Y-109952543D01*
X140374711Y-109918994D01*
X140353324Y-109861946D01*
X140344786Y-109846351D01*
X140268285Y-109744276D01*
X140255724Y-109731715D01*
X140153649Y-109655214D01*
X140138054Y-109646676D01*
X140017606Y-109601522D01*
X140002351Y-109597895D01*
X139951486Y-109592369D01*
X139944672Y-109592000D01*
X139272115Y-109592000D01*
X139256876Y-109596475D01*
X139255671Y-109597865D01*
X139254000Y-109605548D01*
X139254000Y-112389884D01*
X138746000Y-112389884D01*
X138746000Y-111272115D01*
X138741525Y-111256876D01*
X138740135Y-111255671D01*
X138732452Y-111254000D01*
X137610116Y-111254000D01*
X137594877Y-111258475D01*
X137593672Y-111259865D01*
X137592001Y-111267548D01*
X137592001Y-111944669D01*
X120897579Y-111944669D01*
X120912288Y-111891988D01*
X120913644Y-111886017D01*
X120980660Y-111505959D01*
X120981427Y-111499886D01*
X121011119Y-111114000D01*
X121011296Y-111110085D01*
X121012806Y-111001974D01*
X121012738Y-110998030D01*
X120999525Y-110727885D01*
X137592000Y-110727885D01*
X137596475Y-110743124D01*
X137597865Y-110744329D01*
X137605548Y-110746000D01*
X138727885Y-110746000D01*
X138743124Y-110741525D01*
X138744329Y-110740135D01*
X138746000Y-110732452D01*
X138746000Y-109610116D01*
X138741525Y-109594877D01*
X138740135Y-109593672D01*
X138732452Y-109592001D01*
X138055331Y-109592001D01*
X138048510Y-109592371D01*
X137997648Y-109597895D01*
X137982396Y-109601521D01*
X137861946Y-109646676D01*
X137846351Y-109655214D01*
X137744276Y-109731715D01*
X137731715Y-109744276D01*
X137655214Y-109846351D01*
X137646676Y-109861946D01*
X137601522Y-109982394D01*
X137597895Y-109997649D01*
X137592369Y-110048514D01*
X137592000Y-110055328D01*
X137592000Y-110727885D01*
X120999525Y-110727885D01*
X120993832Y-110611489D01*
X120993231Y-110605365D01*
X120936862Y-110223631D01*
X120935662Y-110217569D01*
X120842312Y-109843165D01*
X120840527Y-109837250D01*
X120737221Y-109547134D01*
X123492500Y-109547134D01*
X123499255Y-109609316D01*
X123550385Y-109745705D01*
X123637739Y-109862261D01*
X123754295Y-109949615D01*
X123890684Y-110000745D01*
X123952866Y-110007500D01*
X125547134Y-110007500D01*
X125609316Y-110000745D01*
X125745705Y-109949615D01*
X125862261Y-109862261D01*
X125949615Y-109745705D01*
X126000745Y-109609316D01*
X126007500Y-109547134D01*
X126007500Y-108750000D01*
X129987697Y-108750000D01*
X130006874Y-108969197D01*
X130063823Y-109181733D01*
X130156814Y-109381151D01*
X130283020Y-109561393D01*
X130438607Y-109716980D01*
X130443115Y-109720137D01*
X130443118Y-109720139D01*
X130614339Y-109840029D01*
X130618848Y-109843186D01*
X130623830Y-109845509D01*
X130623835Y-109845512D01*
X130781418Y-109918994D01*
X130818267Y-109936177D01*
X130823575Y-109937599D01*
X130823577Y-109937600D01*
X130889683Y-109955313D01*
X131030803Y-109993126D01*
X131250000Y-110012303D01*
X131469197Y-109993126D01*
X131610317Y-109955313D01*
X131676423Y-109937600D01*
X131676425Y-109937599D01*
X131681733Y-109936177D01*
X131718582Y-109918994D01*
X131876165Y-109845512D01*
X131876170Y-109845509D01*
X131881152Y-109843186D01*
X131885661Y-109840029D01*
X132056882Y-109720139D01*
X132056885Y-109720137D01*
X132061393Y-109716980D01*
X132216980Y-109561393D01*
X132343186Y-109381151D01*
X132436177Y-109181733D01*
X132493126Y-108969197D01*
X132512303Y-108750000D01*
X132493126Y-108530803D01*
X132446327Y-108356146D01*
X132437600Y-108323577D01*
X132437599Y-108323575D01*
X132436177Y-108318267D01*
X132343186Y-108118849D01*
X132255286Y-107993314D01*
X147356334Y-107993314D01*
X147362084Y-108002874D01*
X149987188Y-110627978D01*
X150001132Y-110635592D01*
X150002965Y-110635461D01*
X150009580Y-110631210D01*
X152636463Y-108004327D01*
X152644077Y-107990383D01*
X152644055Y-107990072D01*
X152638204Y-107981406D01*
X152560143Y-107910127D01*
X152555416Y-107906217D01*
X152246419Y-107675059D01*
X152241313Y-107671614D01*
X151911235Y-107471711D01*
X151905822Y-107468784D01*
X151557808Y-107302044D01*
X151552141Y-107299662D01*
X151189526Y-107167682D01*
X151183638Y-107165860D01*
X150809876Y-107069893D01*
X150803854Y-107068657D01*
X150422485Y-107009618D01*
X150416397Y-107008978D01*
X150031085Y-106987436D01*
X150024933Y-106987393D01*
X149639387Y-107003552D01*
X149633261Y-107004109D01*
X149251123Y-107057815D01*
X149245070Y-107058970D01*
X148870000Y-107149709D01*
X148864103Y-107151445D01*
X148499681Y-107278350D01*
X148493968Y-107280658D01*
X148143667Y-107442519D01*
X148138213Y-107445371D01*
X147805376Y-107640646D01*
X147800228Y-107644015D01*
X147488025Y-107870843D01*
X147483247Y-107874684D01*
X147364711Y-107979926D01*
X147356334Y-107993314D01*
X132255286Y-107993314D01*
X132216980Y-107938607D01*
X132061393Y-107783020D01*
X132056885Y-107779863D01*
X132056882Y-107779861D01*
X131885661Y-107659971D01*
X131885658Y-107659969D01*
X131881152Y-107656814D01*
X131876170Y-107654491D01*
X131876165Y-107654488D01*
X131686715Y-107566146D01*
X131686713Y-107566145D01*
X131681733Y-107563823D01*
X131676425Y-107562401D01*
X131676423Y-107562400D01*
X131610317Y-107544687D01*
X131469197Y-107506874D01*
X131250000Y-107487697D01*
X131030803Y-107506874D01*
X130889683Y-107544687D01*
X130823577Y-107562400D01*
X130823575Y-107562401D01*
X130818267Y-107563823D01*
X130813287Y-107566145D01*
X130813285Y-107566146D01*
X130623830Y-107654491D01*
X130623827Y-107654493D01*
X130618849Y-107656814D01*
X130438607Y-107783020D01*
X130283020Y-107938607D01*
X130156814Y-108118849D01*
X130063823Y-108318267D01*
X130062401Y-108323575D01*
X130062400Y-108323577D01*
X130053673Y-108356146D01*
X130006874Y-108530803D01*
X129987697Y-108750000D01*
X126007500Y-108750000D01*
X126007500Y-107952866D01*
X126000745Y-107890684D01*
X125949615Y-107754295D01*
X125862261Y-107637739D01*
X125745705Y-107550385D01*
X125609316Y-107499255D01*
X125547134Y-107492500D01*
X123952866Y-107492500D01*
X123890684Y-107499255D01*
X123754295Y-107550385D01*
X123637739Y-107637739D01*
X123550385Y-107754295D01*
X123499255Y-107890684D01*
X123492500Y-107952866D01*
X123492500Y-109547134D01*
X120737221Y-109547134D01*
X120711082Y-109473727D01*
X120708739Y-109468043D01*
X120544434Y-109118877D01*
X120541545Y-109113443D01*
X120343955Y-108781983D01*
X120340547Y-108776853D01*
X120111547Y-108466244D01*
X120107667Y-108461487D01*
X120020318Y-108364475D01*
X120006797Y-108356145D01*
X120006720Y-108356146D01*
X119997434Y-108361776D01*
X117372022Y-110987188D01*
X117364408Y-111001132D01*
X116634356Y-111001132D01*
X116635592Y-110998868D01*
X116635461Y-110997035D01*
X116631210Y-110990420D01*
X114003902Y-108363112D01*
X113989958Y-108355498D01*
X113989412Y-108355537D01*
X113981055Y-108361136D01*
X113928077Y-108418347D01*
X113924132Y-108423049D01*
X113690821Y-108730426D01*
X113687343Y-108735504D01*
X113485141Y-109064179D01*
X113482176Y-109069572D01*
X113313014Y-109416406D01*
X113310588Y-109422064D01*
X113176076Y-109783758D01*
X113174218Y-109789615D01*
X113075640Y-110162718D01*
X113074365Y-110168718D01*
X113012667Y-110549648D01*
X113011980Y-110555776D01*
X112987751Y-110940886D01*
X112987665Y-110947061D01*
X111508500Y-110947061D01*
X111508500Y-107993314D01*
X114356334Y-107993314D01*
X114362084Y-108002874D01*
X116987188Y-110627978D01*
X117001132Y-110635592D01*
X117002965Y-110635461D01*
X117009580Y-110631210D01*
X119636463Y-108004327D01*
X119644077Y-107990383D01*
X119644055Y-107990072D01*
X119638204Y-107981406D01*
X119560143Y-107910127D01*
X119555416Y-107906217D01*
X119246419Y-107675059D01*
X119241313Y-107671614D01*
X118911235Y-107471711D01*
X118905822Y-107468784D01*
X118557808Y-107302044D01*
X118552141Y-107299662D01*
X118189526Y-107167682D01*
X118183638Y-107165860D01*
X117809876Y-107069893D01*
X117803854Y-107068657D01*
X117422485Y-107009618D01*
X117416397Y-107008978D01*
X117031085Y-106987436D01*
X117024933Y-106987393D01*
X116639387Y-107003552D01*
X116633261Y-107004109D01*
X116251123Y-107057815D01*
X116245070Y-107058970D01*
X115870000Y-107149709D01*
X115864103Y-107151445D01*
X115499681Y-107278350D01*
X115493968Y-107280658D01*
X115143667Y-107442519D01*
X115138213Y-107445371D01*
X114805376Y-107640646D01*
X114800228Y-107644015D01*
X114488025Y-107870843D01*
X114483247Y-107874684D01*
X114364711Y-107979926D01*
X114356334Y-107993314D01*
X111508500Y-107993314D01*
X111508500Y-104000000D01*
X124066502Y-104000000D01*
X124086457Y-104228087D01*
X124145716Y-104449243D01*
X124148039Y-104454224D01*
X124148039Y-104454225D01*
X124240151Y-104651762D01*
X124240154Y-104651767D01*
X124242477Y-104656749D01*
X124373802Y-104844300D01*
X124535700Y-105006198D01*
X124540208Y-105009355D01*
X124540211Y-105009357D01*
X124618389Y-105064098D01*
X124723251Y-105137523D01*
X124728233Y-105139846D01*
X124728238Y-105139849D01*
X124925775Y-105231961D01*
X124930757Y-105234284D01*
X124936065Y-105235706D01*
X124936067Y-105235707D01*
X125146598Y-105292119D01*
X125146600Y-105292119D01*
X125151913Y-105293543D01*
X125380000Y-105313498D01*
X125608087Y-105293543D01*
X125613400Y-105292119D01*
X125613402Y-105292119D01*
X125823933Y-105235707D01*
X125823935Y-105235706D01*
X125829243Y-105234284D01*
X125834225Y-105231961D01*
X126031762Y-105139849D01*
X126031767Y-105139846D01*
X126036749Y-105137523D01*
X126141611Y-105064098D01*
X126219789Y-105009357D01*
X126219792Y-105009355D01*
X126224300Y-105006198D01*
X126386198Y-104844300D01*
X126517523Y-104656749D01*
X126519846Y-104651767D01*
X126519849Y-104651762D01*
X126611961Y-104454225D01*
X126611961Y-104454224D01*
X126614284Y-104449243D01*
X126673543Y-104228087D01*
X126693498Y-104000000D01*
X126673543Y-103771913D01*
X126614284Y-103550757D01*
X126611961Y-103545775D01*
X126519849Y-103348238D01*
X126519846Y-103348233D01*
X126517523Y-103343251D01*
X126386198Y-103155700D01*
X126224300Y-102993802D01*
X126219792Y-102990645D01*
X126219789Y-102990643D01*
X126113030Y-102915890D01*
X126036749Y-102862477D01*
X126031767Y-102860154D01*
X126031762Y-102860151D01*
X125834225Y-102768039D01*
X125834224Y-102768039D01*
X125829243Y-102765716D01*
X125823935Y-102764294D01*
X125823933Y-102764293D01*
X125613402Y-102707881D01*
X125613400Y-102707881D01*
X125608087Y-102706457D01*
X125380000Y-102686502D01*
X125151913Y-102706457D01*
X125146600Y-102707881D01*
X125146598Y-102707881D01*
X124936067Y-102764293D01*
X124936065Y-102764294D01*
X124930757Y-102765716D01*
X124925776Y-102768039D01*
X124925775Y-102768039D01*
X124728238Y-102860151D01*
X124728233Y-102860154D01*
X124723251Y-102862477D01*
X124646970Y-102915890D01*
X124540211Y-102990643D01*
X124540208Y-102990645D01*
X124535700Y-102993802D01*
X124373802Y-103155700D01*
X124242477Y-103343251D01*
X124240154Y-103348233D01*
X124240151Y-103348238D01*
X124148039Y-103545775D01*
X124145716Y-103550757D01*
X124086457Y-103771913D01*
X124066502Y-104000000D01*
X111508500Y-104000000D01*
X111508500Y-100666695D01*
X120237251Y-100666695D01*
X120237548Y-100671848D01*
X120237548Y-100671851D01*
X120243011Y-100766590D01*
X120250110Y-100889715D01*
X120251247Y-100894761D01*
X120251248Y-100894767D01*
X120265666Y-100958743D01*
X120299222Y-101107639D01*
X120383266Y-101314616D01*
X120499987Y-101505088D01*
X120646250Y-101673938D01*
X120818126Y-101816632D01*
X121011000Y-101929338D01*
X121219692Y-102009030D01*
X121224760Y-102010061D01*
X121224763Y-102010062D01*
X121332017Y-102031883D01*
X121438597Y-102053567D01*
X121443772Y-102053757D01*
X121443774Y-102053757D01*
X121656673Y-102061564D01*
X121656677Y-102061564D01*
X121661837Y-102061753D01*
X121666957Y-102061097D01*
X121666959Y-102061097D01*
X121878288Y-102034025D01*
X121878289Y-102034025D01*
X121883416Y-102033368D01*
X121888366Y-102031883D01*
X122092429Y-101970661D01*
X122092434Y-101970659D01*
X122097384Y-101969174D01*
X122297994Y-101870896D01*
X122479860Y-101741173D01*
X122638096Y-101583489D01*
X122697594Y-101500689D01*
X122765435Y-101406277D01*
X122768453Y-101402077D01*
X122773477Y-101391913D01*
X122865136Y-101206453D01*
X122865137Y-101206451D01*
X122867430Y-101201811D01*
X122932370Y-100988069D01*
X122961529Y-100766590D01*
X122963156Y-100700000D01*
X122945870Y-100489747D01*
X122960223Y-100420219D01*
X122982351Y-100390330D01*
X124724547Y-98648134D01*
X127891500Y-98648134D01*
X127898255Y-98710316D01*
X127949385Y-98846705D01*
X128036739Y-98963261D01*
X128153295Y-99050615D01*
X128289684Y-99101745D01*
X128351866Y-99108500D01*
X130048134Y-99108500D01*
X130110316Y-99101745D01*
X130246705Y-99050615D01*
X130363261Y-98963261D01*
X130450615Y-98846705D01*
X130501745Y-98710316D01*
X130502917Y-98699526D01*
X130503803Y-98697394D01*
X130504425Y-98694778D01*
X130504848Y-98694879D01*
X130530155Y-98633965D01*
X130588517Y-98593537D01*
X130659471Y-98591078D01*
X130720490Y-98627371D01*
X130727489Y-98636031D01*
X130730643Y-98639789D01*
X130733802Y-98644300D01*
X130895700Y-98806198D01*
X130900208Y-98809355D01*
X130900211Y-98809357D01*
X130941542Y-98838297D01*
X131083251Y-98937523D01*
X131088233Y-98939846D01*
X131088238Y-98939849D01*
X131285775Y-99031961D01*
X131290757Y-99034284D01*
X131296065Y-99035706D01*
X131296067Y-99035707D01*
X131506598Y-99092119D01*
X131506600Y-99092119D01*
X131511913Y-99093543D01*
X131740000Y-99113498D01*
X131968087Y-99093543D01*
X131973400Y-99092119D01*
X131973402Y-99092119D01*
X132183933Y-99035707D01*
X132183935Y-99035706D01*
X132189243Y-99034284D01*
X132194225Y-99031961D01*
X132391762Y-98939849D01*
X132391767Y-98939846D01*
X132396749Y-98937523D01*
X132538458Y-98838297D01*
X132579789Y-98809357D01*
X132579792Y-98809355D01*
X132584300Y-98806198D01*
X132746198Y-98644300D01*
X132877523Y-98456749D01*
X132879846Y-98451767D01*
X132879849Y-98451762D01*
X132895805Y-98417543D01*
X132942722Y-98364258D01*
X133010999Y-98344797D01*
X133078959Y-98365339D01*
X133124195Y-98417543D01*
X133140151Y-98451762D01*
X133140154Y-98451767D01*
X133142477Y-98456749D01*
X133273802Y-98644300D01*
X133435700Y-98806198D01*
X133440208Y-98809355D01*
X133440211Y-98809357D01*
X133481542Y-98838297D01*
X133623251Y-98937523D01*
X133628233Y-98939846D01*
X133628238Y-98939849D01*
X133825775Y-99031961D01*
X133830757Y-99034284D01*
X133836065Y-99035706D01*
X133836067Y-99035707D01*
X134046598Y-99092119D01*
X134046600Y-99092119D01*
X134051913Y-99093543D01*
X134280000Y-99113498D01*
X134508087Y-99093543D01*
X134513400Y-99092119D01*
X134513402Y-99092119D01*
X134723933Y-99035707D01*
X134723935Y-99035706D01*
X134729243Y-99034284D01*
X134734225Y-99031961D01*
X134931762Y-98939849D01*
X134931767Y-98939846D01*
X134936749Y-98937523D01*
X135078458Y-98838297D01*
X135119789Y-98809357D01*
X135119792Y-98809355D01*
X135124300Y-98806198D01*
X135286198Y-98644300D01*
X135417523Y-98456749D01*
X135419846Y-98451767D01*
X135419849Y-98451762D01*
X135435805Y-98417543D01*
X135482722Y-98364258D01*
X135550999Y-98344797D01*
X135618959Y-98365339D01*
X135664195Y-98417543D01*
X135680151Y-98451762D01*
X135680154Y-98451767D01*
X135682477Y-98456749D01*
X135813802Y-98644300D01*
X135975700Y-98806198D01*
X135980208Y-98809355D01*
X135980211Y-98809357D01*
X136021542Y-98838297D01*
X136163251Y-98937523D01*
X136168233Y-98939846D01*
X136168238Y-98939849D01*
X136365775Y-99031961D01*
X136370757Y-99034284D01*
X136376065Y-99035706D01*
X136376067Y-99035707D01*
X136586598Y-99092119D01*
X136586600Y-99092119D01*
X136591913Y-99093543D01*
X136820000Y-99113498D01*
X137048087Y-99093543D01*
X137053400Y-99092119D01*
X137053402Y-99092119D01*
X137263933Y-99035707D01*
X137263935Y-99035706D01*
X137269243Y-99034284D01*
X137274225Y-99031961D01*
X137471762Y-98939849D01*
X137471767Y-98939846D01*
X137476749Y-98937523D01*
X137618458Y-98838297D01*
X137659789Y-98809357D01*
X137659792Y-98809355D01*
X137664300Y-98806198D01*
X137826198Y-98644300D01*
X137957523Y-98456749D01*
X137959846Y-98451767D01*
X137959849Y-98451762D01*
X138051961Y-98254225D01*
X138051961Y-98254224D01*
X138054284Y-98249243D01*
X138113543Y-98028087D01*
X138133498Y-97800000D01*
X138113543Y-97571913D01*
X138089558Y-97482401D01*
X138055707Y-97356067D01*
X138055706Y-97356065D01*
X138054284Y-97350757D01*
X138045825Y-97332617D01*
X137959849Y-97148238D01*
X137959846Y-97148233D01*
X137957523Y-97143251D01*
X137842332Y-96978742D01*
X137829357Y-96960211D01*
X137829355Y-96960208D01*
X137826198Y-96955700D01*
X137664300Y-96793802D01*
X137659792Y-96790645D01*
X137659789Y-96790643D01*
X137577346Y-96732916D01*
X137476749Y-96662477D01*
X137471767Y-96660154D01*
X137471762Y-96660151D01*
X137274225Y-96568039D01*
X137274224Y-96568039D01*
X137269243Y-96565716D01*
X137263935Y-96564294D01*
X137263933Y-96564293D01*
X137053402Y-96507881D01*
X137053400Y-96507881D01*
X137048087Y-96506457D01*
X136820000Y-96486502D01*
X136591913Y-96506457D01*
X136586600Y-96507881D01*
X136586598Y-96507881D01*
X136376067Y-96564293D01*
X136376065Y-96564294D01*
X136370757Y-96565716D01*
X136365776Y-96568039D01*
X136365775Y-96568039D01*
X136168238Y-96660151D01*
X136168233Y-96660154D01*
X136163251Y-96662477D01*
X136062654Y-96732916D01*
X135980211Y-96790643D01*
X135980208Y-96790645D01*
X135975700Y-96793802D01*
X135813802Y-96955700D01*
X135810645Y-96960208D01*
X135810643Y-96960211D01*
X135797668Y-96978742D01*
X135682477Y-97143251D01*
X135680154Y-97148233D01*
X135680151Y-97148238D01*
X135664195Y-97182457D01*
X135617278Y-97235742D01*
X135549001Y-97255203D01*
X135481041Y-97234661D01*
X135435805Y-97182457D01*
X135419849Y-97148238D01*
X135419846Y-97148233D01*
X135417523Y-97143251D01*
X135302332Y-96978742D01*
X135289357Y-96960211D01*
X135289355Y-96960208D01*
X135286198Y-96955700D01*
X135124300Y-96793802D01*
X135119792Y-96790645D01*
X135119789Y-96790643D01*
X135037346Y-96732916D01*
X134936749Y-96662477D01*
X134931767Y-96660154D01*
X134931762Y-96660151D01*
X134734225Y-96568039D01*
X134734224Y-96568039D01*
X134729243Y-96565716D01*
X134723935Y-96564294D01*
X134723933Y-96564293D01*
X134513402Y-96507881D01*
X134513400Y-96507881D01*
X134508087Y-96506457D01*
X134280000Y-96486502D01*
X134051913Y-96506457D01*
X134046600Y-96507881D01*
X134046598Y-96507881D01*
X133836067Y-96564293D01*
X133836065Y-96564294D01*
X133830757Y-96565716D01*
X133825776Y-96568039D01*
X133825775Y-96568039D01*
X133628238Y-96660151D01*
X133628233Y-96660154D01*
X133623251Y-96662477D01*
X133522654Y-96732916D01*
X133440211Y-96790643D01*
X133440208Y-96790645D01*
X133435700Y-96793802D01*
X133273802Y-96955700D01*
X133270645Y-96960208D01*
X133270643Y-96960211D01*
X133257668Y-96978742D01*
X133142477Y-97143251D01*
X133140154Y-97148233D01*
X133140151Y-97148238D01*
X133124195Y-97182457D01*
X133077278Y-97235742D01*
X133009001Y-97255203D01*
X132941041Y-97234661D01*
X132895805Y-97182457D01*
X132879849Y-97148238D01*
X132879846Y-97148233D01*
X132877523Y-97143251D01*
X132762332Y-96978742D01*
X132749357Y-96960211D01*
X132749355Y-96960208D01*
X132746198Y-96955700D01*
X132584300Y-96793802D01*
X132579792Y-96790645D01*
X132579789Y-96790643D01*
X132497346Y-96732916D01*
X132396749Y-96662477D01*
X132391767Y-96660154D01*
X132391762Y-96660151D01*
X132194225Y-96568039D01*
X132194224Y-96568039D01*
X132189243Y-96565716D01*
X132183935Y-96564294D01*
X132183933Y-96564293D01*
X131973402Y-96507881D01*
X131973400Y-96507881D01*
X131968087Y-96506457D01*
X131740000Y-96486502D01*
X131511913Y-96506457D01*
X131506600Y-96507881D01*
X131506598Y-96507881D01*
X131296067Y-96564293D01*
X131296065Y-96564294D01*
X131290757Y-96565716D01*
X131285776Y-96568039D01*
X131285775Y-96568039D01*
X131088238Y-96660151D01*
X131088233Y-96660154D01*
X131083251Y-96662477D01*
X130982654Y-96732916D01*
X130900211Y-96790643D01*
X130900208Y-96790645D01*
X130895700Y-96793802D01*
X130733802Y-96955700D01*
X130730643Y-96960211D01*
X130727108Y-96964424D01*
X130725974Y-96963473D01*
X130675929Y-97003471D01*
X130605310Y-97010776D01*
X130541951Y-96978742D01*
X130505970Y-96917538D01*
X130502918Y-96900483D01*
X130501745Y-96889684D01*
X130450615Y-96753295D01*
X130363261Y-96636739D01*
X130246705Y-96549385D01*
X130110316Y-96498255D01*
X130048134Y-96491500D01*
X128351866Y-96491500D01*
X128289684Y-96498255D01*
X128153295Y-96549385D01*
X128036739Y-96636739D01*
X127949385Y-96753295D01*
X127898255Y-96889684D01*
X127891500Y-96951866D01*
X127891500Y-98648134D01*
X124724547Y-98648134D01*
X127577276Y-95795405D01*
X127639588Y-95761379D01*
X127666371Y-95758500D01*
X133972165Y-95758500D01*
X133979966Y-95758742D01*
X134041298Y-95762547D01*
X134054260Y-95760320D01*
X134075596Y-95758500D01*
X137633629Y-95758500D01*
X137701750Y-95778502D01*
X137722724Y-95795405D01*
X139824595Y-97897276D01*
X139858621Y-97959588D01*
X139861500Y-97986371D01*
X139861500Y-102868133D01*
X139841498Y-102936254D01*
X139807772Y-102971345D01*
X139775700Y-102993802D01*
X139613802Y-103155700D01*
X139482477Y-103343251D01*
X139480154Y-103348233D01*
X139480151Y-103348238D01*
X139388039Y-103545775D01*
X139385716Y-103550757D01*
X139326457Y-103771913D01*
X139306502Y-104000000D01*
X139326457Y-104228087D01*
X139385716Y-104449243D01*
X139388039Y-104454224D01*
X139388039Y-104454225D01*
X139480151Y-104651762D01*
X139480154Y-104651767D01*
X139482477Y-104656749D01*
X139613802Y-104844300D01*
X139775700Y-105006198D01*
X139780208Y-105009355D01*
X139780211Y-105009357D01*
X139858389Y-105064098D01*
X139963251Y-105137523D01*
X139968233Y-105139846D01*
X139968238Y-105139849D01*
X140165775Y-105231961D01*
X140170757Y-105234284D01*
X140176065Y-105235706D01*
X140176067Y-105235707D01*
X140386598Y-105292119D01*
X140386600Y-105292119D01*
X140391913Y-105293543D01*
X140620000Y-105313498D01*
X140848087Y-105293543D01*
X140853400Y-105292119D01*
X140853402Y-105292119D01*
X141063933Y-105235707D01*
X141063935Y-105235706D01*
X141069243Y-105234284D01*
X141074225Y-105231961D01*
X141271762Y-105139849D01*
X141271767Y-105139846D01*
X141276749Y-105137523D01*
X141381611Y-105064098D01*
X141459789Y-105009357D01*
X141459792Y-105009355D01*
X141464300Y-105006198D01*
X141626198Y-104844300D01*
X141757523Y-104656749D01*
X141759846Y-104651767D01*
X141759849Y-104651762D01*
X141851961Y-104454225D01*
X141851961Y-104454224D01*
X141854284Y-104449243D01*
X141913543Y-104228087D01*
X141933498Y-104000000D01*
X141913543Y-103771913D01*
X141854284Y-103550757D01*
X141851961Y-103545775D01*
X141759849Y-103348238D01*
X141759846Y-103348233D01*
X141757523Y-103343251D01*
X141626198Y-103155700D01*
X141464300Y-102993802D01*
X141432229Y-102971345D01*
X141387901Y-102915890D01*
X141378500Y-102868133D01*
X141378500Y-101620000D01*
X143686502Y-101620000D01*
X143706457Y-101848087D01*
X143707881Y-101853400D01*
X143707881Y-101853402D01*
X143761567Y-102053757D01*
X143765716Y-102069243D01*
X143768039Y-102074224D01*
X143768039Y-102074225D01*
X143860151Y-102271762D01*
X143860154Y-102271767D01*
X143862477Y-102276749D01*
X143993802Y-102464300D01*
X144155700Y-102626198D01*
X144160208Y-102629355D01*
X144160211Y-102629357D01*
X144238389Y-102684098D01*
X144343251Y-102757523D01*
X144348233Y-102759846D01*
X144348238Y-102759849D01*
X144545775Y-102851961D01*
X144550757Y-102854284D01*
X144556065Y-102855706D01*
X144556067Y-102855707D01*
X144766598Y-102912119D01*
X144766600Y-102912119D01*
X144771913Y-102913543D01*
X145000000Y-102933498D01*
X145228087Y-102913543D01*
X145233400Y-102912119D01*
X145233402Y-102912119D01*
X145443933Y-102855707D01*
X145443935Y-102855706D01*
X145449243Y-102854284D01*
X145454225Y-102851961D01*
X145651762Y-102759849D01*
X145651767Y-102759846D01*
X145656749Y-102757523D01*
X145761611Y-102684098D01*
X145839789Y-102629357D01*
X145839792Y-102629355D01*
X145844300Y-102626198D01*
X146006198Y-102464300D01*
X146137523Y-102276749D01*
X146139846Y-102271767D01*
X146139849Y-102271762D01*
X146231961Y-102074225D01*
X146231961Y-102074224D01*
X146234284Y-102069243D01*
X146238434Y-102053757D01*
X146292119Y-101853402D01*
X146292119Y-101853400D01*
X146293543Y-101848087D01*
X146313498Y-101620000D01*
X149686502Y-101620000D01*
X149706457Y-101848087D01*
X149707881Y-101853400D01*
X149707881Y-101853402D01*
X149761567Y-102053757D01*
X149765716Y-102069243D01*
X149768039Y-102074224D01*
X149768039Y-102074225D01*
X149860151Y-102271762D01*
X149860154Y-102271767D01*
X149862477Y-102276749D01*
X149993802Y-102464300D01*
X150155700Y-102626198D01*
X150160208Y-102629355D01*
X150160211Y-102629357D01*
X150238389Y-102684098D01*
X150343251Y-102757523D01*
X150348233Y-102759846D01*
X150348238Y-102759849D01*
X150545775Y-102851961D01*
X150550757Y-102854284D01*
X150556065Y-102855706D01*
X150556067Y-102855707D01*
X150766598Y-102912119D01*
X150766600Y-102912119D01*
X150771913Y-102913543D01*
X151000000Y-102933498D01*
X151228087Y-102913543D01*
X151233400Y-102912119D01*
X151233402Y-102912119D01*
X151443933Y-102855707D01*
X151443935Y-102855706D01*
X151449243Y-102854284D01*
X151454225Y-102851961D01*
X151651762Y-102759849D01*
X151651767Y-102759846D01*
X151656749Y-102757523D01*
X151761611Y-102684098D01*
X151839789Y-102629357D01*
X151839792Y-102629355D01*
X151844300Y-102626198D01*
X152006198Y-102464300D01*
X152137523Y-102276749D01*
X152139846Y-102271767D01*
X152139849Y-102271762D01*
X152231961Y-102074225D01*
X152231961Y-102074224D01*
X152234284Y-102069243D01*
X152238434Y-102053757D01*
X152292119Y-101853402D01*
X152292119Y-101853400D01*
X152293543Y-101848087D01*
X152313498Y-101620000D01*
X152293543Y-101391913D01*
X152272831Y-101314616D01*
X152235707Y-101176067D01*
X152235706Y-101176065D01*
X152234284Y-101170757D01*
X152146704Y-100982939D01*
X152139849Y-100968238D01*
X152139846Y-100968233D01*
X152137523Y-100963251D01*
X152006198Y-100775700D01*
X151844300Y-100613802D01*
X151839792Y-100610645D01*
X151839789Y-100610643D01*
X151667134Y-100489749D01*
X151656749Y-100482477D01*
X151651767Y-100480154D01*
X151651762Y-100480151D01*
X151454225Y-100388039D01*
X151454224Y-100388039D01*
X151449243Y-100385716D01*
X151443935Y-100384294D01*
X151443933Y-100384293D01*
X151233402Y-100327881D01*
X151233400Y-100327881D01*
X151228087Y-100326457D01*
X151000000Y-100306502D01*
X150771913Y-100326457D01*
X150766600Y-100327881D01*
X150766598Y-100327881D01*
X150556067Y-100384293D01*
X150556065Y-100384294D01*
X150550757Y-100385716D01*
X150545776Y-100388039D01*
X150545775Y-100388039D01*
X150348238Y-100480151D01*
X150348233Y-100480154D01*
X150343251Y-100482477D01*
X150332866Y-100489749D01*
X150160211Y-100610643D01*
X150160208Y-100610645D01*
X150155700Y-100613802D01*
X149993802Y-100775700D01*
X149862477Y-100963251D01*
X149860154Y-100968233D01*
X149860151Y-100968238D01*
X149853296Y-100982939D01*
X149765716Y-101170757D01*
X149764294Y-101176065D01*
X149764293Y-101176067D01*
X149727169Y-101314616D01*
X149706457Y-101391913D01*
X149686502Y-101620000D01*
X146313498Y-101620000D01*
X146293543Y-101391913D01*
X146272831Y-101314616D01*
X146235707Y-101176067D01*
X146235706Y-101176065D01*
X146234284Y-101170757D01*
X146146704Y-100982939D01*
X146139849Y-100968238D01*
X146139846Y-100968233D01*
X146137523Y-100963251D01*
X146006198Y-100775700D01*
X145844300Y-100613802D01*
X145839792Y-100610645D01*
X145839789Y-100610643D01*
X145667134Y-100489749D01*
X145656749Y-100482477D01*
X145651767Y-100480154D01*
X145651762Y-100480151D01*
X145454225Y-100388039D01*
X145454224Y-100388039D01*
X145449243Y-100385716D01*
X145443935Y-100384294D01*
X145443933Y-100384293D01*
X145233402Y-100327881D01*
X145233400Y-100327881D01*
X145228087Y-100326457D01*
X145000000Y-100306502D01*
X144771913Y-100326457D01*
X144766600Y-100327881D01*
X144766598Y-100327881D01*
X144556067Y-100384293D01*
X144556065Y-100384294D01*
X144550757Y-100385716D01*
X144545776Y-100388039D01*
X144545775Y-100388039D01*
X144348238Y-100480151D01*
X144348233Y-100480154D01*
X144343251Y-100482477D01*
X144332866Y-100489749D01*
X144160211Y-100610643D01*
X144160208Y-100610645D01*
X144155700Y-100613802D01*
X143993802Y-100775700D01*
X143862477Y-100963251D01*
X143860154Y-100968233D01*
X143860151Y-100968238D01*
X143853296Y-100982939D01*
X143765716Y-101170757D01*
X143764294Y-101176065D01*
X143764293Y-101176067D01*
X143727169Y-101314616D01*
X143706457Y-101391913D01*
X143686502Y-101620000D01*
X141378500Y-101620000D01*
X141378500Y-97687070D01*
X141379933Y-97668120D01*
X141382099Y-97653885D01*
X141382099Y-97653881D01*
X141383199Y-97646651D01*
X141378915Y-97593982D01*
X141378500Y-97583767D01*
X141378500Y-97575707D01*
X141375209Y-97547480D01*
X141374778Y-97543121D01*
X141369454Y-97477662D01*
X141369453Y-97477659D01*
X141368860Y-97470364D01*
X141366604Y-97463400D01*
X141365417Y-97457461D01*
X141364030Y-97451590D01*
X141363182Y-97444319D01*
X141360686Y-97437443D01*
X141360684Y-97437434D01*
X141338275Y-97375702D01*
X141336865Y-97371598D01*
X141314352Y-97302101D01*
X141310556Y-97295846D01*
X141308057Y-97290387D01*
X141305329Y-97284939D01*
X141302833Y-97278063D01*
X141262805Y-97217010D01*
X141260481Y-97213327D01*
X141225500Y-97155680D01*
X141225499Y-97155679D01*
X141222595Y-97150893D01*
X141215198Y-97142517D01*
X141215225Y-97142493D01*
X141212570Y-97139499D01*
X141209868Y-97136268D01*
X141205856Y-97130148D01*
X141149617Y-97076872D01*
X141147175Y-97074494D01*
X138583770Y-94511089D01*
X138571384Y-94496677D01*
X138562851Y-94485082D01*
X138562846Y-94485077D01*
X138558508Y-94479182D01*
X138552930Y-94474443D01*
X138552927Y-94474440D01*
X138518232Y-94444965D01*
X138510716Y-94438035D01*
X138505021Y-94432340D01*
X138498230Y-94426967D01*
X138482749Y-94414719D01*
X138479345Y-94411928D01*
X138429297Y-94369409D01*
X138429295Y-94369408D01*
X138423715Y-94364667D01*
X138417199Y-94361339D01*
X138412150Y-94357972D01*
X138407021Y-94354805D01*
X138401284Y-94350266D01*
X138335125Y-94319345D01*
X138331225Y-94317439D01*
X138266192Y-94284231D01*
X138259084Y-94282492D01*
X138253441Y-94280393D01*
X138247678Y-94278476D01*
X138241050Y-94275378D01*
X138169583Y-94260513D01*
X138165299Y-94259543D01*
X138129961Y-94250896D01*
X138094390Y-94242192D01*
X138088788Y-94241844D01*
X138088785Y-94241844D01*
X138083236Y-94241500D01*
X138083238Y-94241464D01*
X138079245Y-94241225D01*
X138075053Y-94240851D01*
X138067885Y-94239360D01*
X138004120Y-94241085D01*
X137990479Y-94241454D01*
X137987072Y-94241500D01*
X134386371Y-94241500D01*
X134318250Y-94221498D01*
X134297276Y-94204595D01*
X131789158Y-91696477D01*
X131755132Y-91634165D01*
X131760197Y-91563350D01*
X131802744Y-91506514D01*
X131867272Y-91481861D01*
X131962520Y-91473528D01*
X131973312Y-91471625D01*
X132183761Y-91415236D01*
X132194053Y-91411490D01*
X132391511Y-91319414D01*
X132401007Y-91313931D01*
X132579467Y-91188972D01*
X132587875Y-91181916D01*
X132741916Y-91027875D01*
X132748972Y-91019467D01*
X132873931Y-90841007D01*
X132879414Y-90831511D01*
X132895529Y-90796951D01*
X132942446Y-90743666D01*
X133010723Y-90724205D01*
X133078683Y-90744747D01*
X133123919Y-90796951D01*
X133140151Y-90831762D01*
X133140154Y-90831767D01*
X133142477Y-90836749D01*
X133273802Y-91024300D01*
X133435700Y-91186198D01*
X133440208Y-91189355D01*
X133440211Y-91189357D01*
X133508878Y-91237438D01*
X133623251Y-91317523D01*
X133628233Y-91319846D01*
X133628238Y-91319849D01*
X133824765Y-91411490D01*
X133830757Y-91414284D01*
X133836065Y-91415706D01*
X133836067Y-91415707D01*
X134046598Y-91472119D01*
X134046600Y-91472119D01*
X134051913Y-91473543D01*
X134280000Y-91493498D01*
X134508087Y-91473543D01*
X134513400Y-91472119D01*
X134513402Y-91472119D01*
X134723933Y-91415707D01*
X134723935Y-91415706D01*
X134729243Y-91414284D01*
X134735235Y-91411490D01*
X134931762Y-91319849D01*
X134931767Y-91319846D01*
X134936749Y-91317523D01*
X135051122Y-91237438D01*
X135119789Y-91189357D01*
X135119792Y-91189355D01*
X135124300Y-91186198D01*
X135286198Y-91024300D01*
X135417523Y-90836749D01*
X135419846Y-90831767D01*
X135419849Y-90831762D01*
X135435805Y-90797543D01*
X135482722Y-90744258D01*
X135550999Y-90724797D01*
X135618959Y-90745339D01*
X135664195Y-90797543D01*
X135680151Y-90831762D01*
X135680154Y-90831767D01*
X135682477Y-90836749D01*
X135813802Y-91024300D01*
X135975700Y-91186198D01*
X135980208Y-91189355D01*
X135980211Y-91189357D01*
X136048878Y-91237438D01*
X136163251Y-91317523D01*
X136168233Y-91319846D01*
X136168238Y-91319849D01*
X136364765Y-91411490D01*
X136370757Y-91414284D01*
X136376065Y-91415706D01*
X136376067Y-91415707D01*
X136586598Y-91472119D01*
X136586600Y-91472119D01*
X136591913Y-91473543D01*
X136820000Y-91493498D01*
X137048087Y-91473543D01*
X137053400Y-91472119D01*
X137053402Y-91472119D01*
X137263933Y-91415707D01*
X137263935Y-91415706D01*
X137269243Y-91414284D01*
X137275235Y-91411490D01*
X137471762Y-91319849D01*
X137471767Y-91319846D01*
X137476749Y-91317523D01*
X137591122Y-91237438D01*
X137659789Y-91189357D01*
X137659792Y-91189355D01*
X137664300Y-91186198D01*
X137826198Y-91024300D01*
X137957523Y-90836749D01*
X137959846Y-90831767D01*
X137959849Y-90831762D01*
X138051961Y-90634225D01*
X138051961Y-90634224D01*
X138054284Y-90629243D01*
X138079096Y-90536646D01*
X138112119Y-90413402D01*
X138112119Y-90413400D01*
X138113543Y-90408087D01*
X138133498Y-90180000D01*
X138113543Y-89951913D01*
X138054284Y-89730757D01*
X138045825Y-89712617D01*
X137959849Y-89528238D01*
X137959846Y-89528233D01*
X137957523Y-89523251D01*
X137837433Y-89351745D01*
X137829357Y-89340211D01*
X137829355Y-89340208D01*
X137826198Y-89335700D01*
X137664300Y-89173802D01*
X137659792Y-89170645D01*
X137659789Y-89170643D01*
X137554194Y-89096705D01*
X137476749Y-89042477D01*
X137471767Y-89040154D01*
X137471762Y-89040151D01*
X137274225Y-88948039D01*
X137274224Y-88948039D01*
X137269243Y-88945716D01*
X137263935Y-88944294D01*
X137263933Y-88944293D01*
X137053402Y-88887881D01*
X137053400Y-88887881D01*
X137048087Y-88886457D01*
X136820000Y-88866502D01*
X136591913Y-88886457D01*
X136586600Y-88887881D01*
X136586598Y-88887881D01*
X136376067Y-88944293D01*
X136376065Y-88944294D01*
X136370757Y-88945716D01*
X136365776Y-88948039D01*
X136365775Y-88948039D01*
X136168238Y-89040151D01*
X136168233Y-89040154D01*
X136163251Y-89042477D01*
X136085806Y-89096705D01*
X135980211Y-89170643D01*
X135980208Y-89170645D01*
X135975700Y-89173802D01*
X135813802Y-89335700D01*
X135810645Y-89340208D01*
X135810643Y-89340211D01*
X135802567Y-89351745D01*
X135682477Y-89523251D01*
X135680154Y-89528233D01*
X135680151Y-89528238D01*
X135664195Y-89562457D01*
X135617278Y-89615742D01*
X135549001Y-89635203D01*
X135481041Y-89614661D01*
X135435805Y-89562457D01*
X135419849Y-89528238D01*
X135419846Y-89528233D01*
X135417523Y-89523251D01*
X135297433Y-89351745D01*
X135289357Y-89340211D01*
X135289355Y-89340208D01*
X135286198Y-89335700D01*
X135124300Y-89173802D01*
X135119792Y-89170645D01*
X135119789Y-89170643D01*
X135014194Y-89096705D01*
X134936749Y-89042477D01*
X134931767Y-89040154D01*
X134931762Y-89040151D01*
X134734225Y-88948039D01*
X134734224Y-88948039D01*
X134729243Y-88945716D01*
X134723935Y-88944294D01*
X134723933Y-88944293D01*
X134513402Y-88887881D01*
X134513400Y-88887881D01*
X134508087Y-88886457D01*
X134280000Y-88866502D01*
X134051913Y-88886457D01*
X134046600Y-88887881D01*
X134046598Y-88887881D01*
X133836067Y-88944293D01*
X133836065Y-88944294D01*
X133830757Y-88945716D01*
X133825776Y-88948039D01*
X133825775Y-88948039D01*
X133628238Y-89040151D01*
X133628233Y-89040154D01*
X133623251Y-89042477D01*
X133545806Y-89096705D01*
X133440211Y-89170643D01*
X133440208Y-89170645D01*
X133435700Y-89173802D01*
X133273802Y-89335700D01*
X133270645Y-89340208D01*
X133270643Y-89340211D01*
X133262567Y-89351745D01*
X133142477Y-89523251D01*
X133140154Y-89528233D01*
X133140151Y-89528238D01*
X133123919Y-89563049D01*
X133077002Y-89616334D01*
X133008725Y-89635795D01*
X132940765Y-89615253D01*
X132895529Y-89563049D01*
X132879414Y-89528489D01*
X132873931Y-89518993D01*
X132748972Y-89340533D01*
X132741916Y-89332125D01*
X132587875Y-89178084D01*
X132579467Y-89171028D01*
X132401007Y-89046069D01*
X132391511Y-89040586D01*
X132194053Y-88948510D01*
X132183761Y-88944764D01*
X132011497Y-88898606D01*
X131997401Y-88898942D01*
X131994000Y-88906884D01*
X131994000Y-90308000D01*
X131973998Y-90376121D01*
X131920342Y-90422614D01*
X131868000Y-90434000D01*
X131612000Y-90434000D01*
X131543879Y-90413998D01*
X131497386Y-90360342D01*
X131486000Y-90308000D01*
X131486000Y-88912033D01*
X131482027Y-88898502D01*
X131473478Y-88897273D01*
X131296239Y-88944764D01*
X131285947Y-88948510D01*
X131088489Y-89040586D01*
X131078993Y-89046069D01*
X130900533Y-89171028D01*
X130892125Y-89178084D01*
X130738084Y-89332125D01*
X130731028Y-89340533D01*
X130606069Y-89518993D01*
X130600586Y-89528489D01*
X130584471Y-89563049D01*
X130537554Y-89616334D01*
X130469277Y-89635795D01*
X130401317Y-89615253D01*
X130356081Y-89563049D01*
X130339849Y-89528238D01*
X130339846Y-89528233D01*
X130337523Y-89523251D01*
X130217433Y-89351745D01*
X130209357Y-89340211D01*
X130209355Y-89340208D01*
X130206198Y-89335700D01*
X130044300Y-89173802D01*
X130039792Y-89170645D01*
X130039789Y-89170643D01*
X129934194Y-89096705D01*
X129856749Y-89042477D01*
X129851767Y-89040154D01*
X129851762Y-89040151D01*
X129654225Y-88948039D01*
X129654224Y-88948039D01*
X129649243Y-88945716D01*
X129643935Y-88944294D01*
X129643933Y-88944293D01*
X129433402Y-88887881D01*
X129433400Y-88887881D01*
X129428087Y-88886457D01*
X129200000Y-88866502D01*
X128971913Y-88886457D01*
X128966600Y-88887881D01*
X128966598Y-88887881D01*
X128756067Y-88944293D01*
X128756065Y-88944294D01*
X128750757Y-88945716D01*
X128745776Y-88948039D01*
X128745775Y-88948039D01*
X128548238Y-89040151D01*
X128548233Y-89040154D01*
X128543251Y-89042477D01*
X128465806Y-89096705D01*
X128360211Y-89170643D01*
X128360208Y-89170645D01*
X128355700Y-89173802D01*
X128193802Y-89335700D01*
X128190645Y-89340208D01*
X128190643Y-89340211D01*
X128182567Y-89351745D01*
X128062477Y-89523251D01*
X128060154Y-89528233D01*
X128060151Y-89528238D01*
X127974175Y-89712617D01*
X127965716Y-89730757D01*
X127906457Y-89951913D01*
X127886502Y-90180000D01*
X127906457Y-90408087D01*
X127907881Y-90413400D01*
X127907881Y-90413402D01*
X127940905Y-90536646D01*
X127965716Y-90629243D01*
X127968039Y-90634224D01*
X127968039Y-90634225D01*
X128060151Y-90831762D01*
X128060154Y-90831767D01*
X128062477Y-90836749D01*
X128193802Y-91024300D01*
X128355700Y-91186198D01*
X128360208Y-91189355D01*
X128360211Y-91189357D01*
X128428878Y-91237438D01*
X128543251Y-91317523D01*
X128548233Y-91319846D01*
X128548238Y-91319849D01*
X128744765Y-91411490D01*
X128750757Y-91414284D01*
X128756065Y-91415706D01*
X128756067Y-91415707D01*
X128966598Y-91472119D01*
X128966600Y-91472119D01*
X128971913Y-91473543D01*
X129200000Y-91493498D01*
X129205475Y-91493019D01*
X129362913Y-91479245D01*
X129432518Y-91493234D01*
X129462990Y-91515671D01*
X131973724Y-94026405D01*
X132007750Y-94088717D01*
X132002685Y-94159532D01*
X131960138Y-94216368D01*
X131893618Y-94241179D01*
X131884629Y-94241500D01*
X127367069Y-94241500D01*
X127348121Y-94240067D01*
X127340780Y-94238950D01*
X127333883Y-94237901D01*
X127333881Y-94237901D01*
X127326651Y-94236801D01*
X127319359Y-94237394D01*
X127319356Y-94237394D01*
X127273982Y-94241085D01*
X127263767Y-94241500D01*
X127255707Y-94241500D01*
X127242417Y-94243049D01*
X127227493Y-94244789D01*
X127223118Y-94245222D01*
X127157661Y-94250546D01*
X127157658Y-94250547D01*
X127150363Y-94251140D01*
X127143399Y-94253396D01*
X127137440Y-94254587D01*
X127131585Y-94255971D01*
X127124319Y-94256818D01*
X127055673Y-94281735D01*
X127051545Y-94283152D01*
X126989064Y-94303393D01*
X126989062Y-94303394D01*
X126982101Y-94305649D01*
X126975846Y-94309445D01*
X126970372Y-94311951D01*
X126964942Y-94314670D01*
X126958063Y-94317167D01*
X126897016Y-94357191D01*
X126893327Y-94359518D01*
X126884843Y-94364667D01*
X126835693Y-94394491D01*
X126835688Y-94394495D01*
X126830892Y-94397405D01*
X126822516Y-94404803D01*
X126822493Y-94404777D01*
X126819503Y-94407426D01*
X126816264Y-94410134D01*
X126810148Y-94414144D01*
X126805121Y-94419451D01*
X126805117Y-94419454D01*
X126756872Y-94470383D01*
X126754494Y-94472825D01*
X123163448Y-98063871D01*
X123101136Y-98097897D01*
X123030321Y-98092832D01*
X122973485Y-98050285D01*
X122948777Y-97985101D01*
X122945276Y-97942521D01*
X122944852Y-97937361D01*
X122890431Y-97720702D01*
X122801354Y-97515840D01*
X122709367Y-97373650D01*
X122682822Y-97332617D01*
X122682820Y-97332614D01*
X122680014Y-97328277D01*
X122529670Y-97163051D01*
X122525619Y-97159852D01*
X122525615Y-97159848D01*
X122358414Y-97027800D01*
X122358410Y-97027798D01*
X122354359Y-97024598D01*
X122312569Y-97001529D01*
X122262598Y-96951097D01*
X122247826Y-96881654D01*
X122272942Y-96815248D01*
X122300294Y-96788641D01*
X122475328Y-96663792D01*
X122483200Y-96657139D01*
X122634052Y-96506812D01*
X122640730Y-96498965D01*
X122765003Y-96326020D01*
X122770313Y-96317183D01*
X122864670Y-96126267D01*
X122868469Y-96116672D01*
X122930377Y-95912910D01*
X122932555Y-95902837D01*
X122933986Y-95891962D01*
X122931775Y-95877778D01*
X122918617Y-95874000D01*
X120283225Y-95874000D01*
X120269694Y-95877973D01*
X120268257Y-95887966D01*
X120298565Y-96022446D01*
X120301645Y-96032275D01*
X120381770Y-96229603D01*
X120386413Y-96238794D01*
X120497694Y-96420388D01*
X120503777Y-96428699D01*
X120643213Y-96589667D01*
X120650580Y-96596883D01*
X120814434Y-96732916D01*
X120822881Y-96738831D01*
X120891969Y-96779203D01*
X120940693Y-96830842D01*
X120953764Y-96900625D01*
X120927033Y-96966396D01*
X120886584Y-96999752D01*
X120873607Y-97006507D01*
X120869474Y-97009610D01*
X120869471Y-97009612D01*
X120781422Y-97075721D01*
X120694965Y-97140635D01*
X120685162Y-97150893D01*
X120551859Y-97290387D01*
X120540629Y-97302138D01*
X120414743Y-97486680D01*
X120375179Y-97571913D01*
X120330522Y-97668120D01*
X120320688Y-97689305D01*
X120260989Y-97904570D01*
X120237251Y-98126695D01*
X120250110Y-98349715D01*
X120251247Y-98354761D01*
X120251248Y-98354767D01*
X120275247Y-98461257D01*
X120299222Y-98567639D01*
X120383266Y-98774616D01*
X120404555Y-98809357D01*
X120494468Y-98956081D01*
X120499987Y-98965088D01*
X120646250Y-99133938D01*
X120818126Y-99276632D01*
X120888595Y-99317811D01*
X120891445Y-99319476D01*
X120940169Y-99371114D01*
X120953240Y-99440897D01*
X120926509Y-99506669D01*
X120886055Y-99540027D01*
X120873607Y-99546507D01*
X120869474Y-99549610D01*
X120869471Y-99549612D01*
X120699100Y-99677530D01*
X120694965Y-99680635D01*
X120540629Y-99842138D01*
X120414743Y-100026680D01*
X120320688Y-100229305D01*
X120260989Y-100444570D01*
X120237251Y-100666695D01*
X111508500Y-100666695D01*
X111508500Y-93046695D01*
X120237251Y-93046695D01*
X120237548Y-93051848D01*
X120237548Y-93051851D01*
X120243011Y-93146590D01*
X120250110Y-93269715D01*
X120251247Y-93274761D01*
X120251248Y-93274767D01*
X120271119Y-93362939D01*
X120299222Y-93487639D01*
X120383266Y-93694616D01*
X120499987Y-93885088D01*
X120646250Y-94053938D01*
X120818126Y-94196632D01*
X120860679Y-94221498D01*
X120891955Y-94239774D01*
X120940679Y-94291412D01*
X120953750Y-94361195D01*
X120927019Y-94426967D01*
X120886562Y-94460327D01*
X120878457Y-94464546D01*
X120869738Y-94470036D01*
X120699433Y-94597905D01*
X120691726Y-94604748D01*
X120544590Y-94758717D01*
X120538104Y-94766727D01*
X120418098Y-94942649D01*
X120413000Y-94951623D01*
X120323338Y-95144783D01*
X120319775Y-95154470D01*
X120264389Y-95354183D01*
X120265912Y-95362607D01*
X120278292Y-95366000D01*
X122918344Y-95366000D01*
X122931875Y-95362027D01*
X122933180Y-95352947D01*
X122891214Y-95185875D01*
X122887894Y-95176124D01*
X122802972Y-94980814D01*
X122798105Y-94971739D01*
X122682426Y-94792926D01*
X122676136Y-94784757D01*
X122532806Y-94627240D01*
X122525273Y-94620215D01*
X122358139Y-94488222D01*
X122349556Y-94482520D01*
X122312602Y-94462120D01*
X122262631Y-94411687D01*
X122247859Y-94342245D01*
X122272975Y-94275839D01*
X122300327Y-94249232D01*
X122362906Y-94204595D01*
X122479860Y-94121173D01*
X122638096Y-93963489D01*
X122697594Y-93880689D01*
X122765435Y-93786277D01*
X122768453Y-93782077D01*
X122867430Y-93581811D01*
X122932370Y-93368069D01*
X122961529Y-93146590D01*
X122963156Y-93080000D01*
X122944852Y-92857361D01*
X122890431Y-92640702D01*
X122801354Y-92435840D01*
X122680014Y-92248277D01*
X122529670Y-92083051D01*
X122525619Y-92079852D01*
X122525615Y-92079848D01*
X122358414Y-91947800D01*
X122358410Y-91947798D01*
X122354359Y-91944598D01*
X122313053Y-91921796D01*
X122263084Y-91871364D01*
X122248312Y-91801921D01*
X122273428Y-91735516D01*
X122300780Y-91708909D01*
X122344603Y-91677650D01*
X122479860Y-91581173D01*
X122497746Y-91563350D01*
X122634435Y-91427137D01*
X122638096Y-91423489D01*
X122644027Y-91415236D01*
X122765435Y-91246277D01*
X122768453Y-91242077D01*
X122867430Y-91041811D01*
X122932370Y-90828069D01*
X122961529Y-90606590D01*
X122963156Y-90540000D01*
X122944852Y-90317361D01*
X122890431Y-90100702D01*
X122801354Y-89895840D01*
X122680014Y-89708277D01*
X122676532Y-89704450D01*
X122532798Y-89546488D01*
X122501746Y-89482642D01*
X122510141Y-89412143D01*
X122555317Y-89357375D01*
X122581761Y-89343706D01*
X122688297Y-89303767D01*
X122696705Y-89300615D01*
X122813261Y-89213261D01*
X122900615Y-89096705D01*
X122951745Y-88960316D01*
X122958500Y-88898134D01*
X122958500Y-87101866D01*
X122951745Y-87039684D01*
X122900615Y-86903295D01*
X122813261Y-86786739D01*
X122696705Y-86699385D01*
X122560316Y-86648255D01*
X122498134Y-86641500D01*
X120701866Y-86641500D01*
X120639684Y-86648255D01*
X120503295Y-86699385D01*
X120386739Y-86786739D01*
X120299385Y-86903295D01*
X120248255Y-87039684D01*
X120241500Y-87101866D01*
X120241500Y-88898134D01*
X120248255Y-88960316D01*
X120299385Y-89096705D01*
X120386739Y-89213261D01*
X120503295Y-89300615D01*
X120511704Y-89303767D01*
X120511705Y-89303768D01*
X120620451Y-89344535D01*
X120677216Y-89387176D01*
X120701916Y-89453738D01*
X120686709Y-89523087D01*
X120667316Y-89549568D01*
X120604079Y-89615742D01*
X120540629Y-89682138D01*
X120414743Y-89866680D01*
X120320688Y-90069305D01*
X120260989Y-90284570D01*
X120237251Y-90506695D01*
X120237548Y-90511848D01*
X120237548Y-90511851D01*
X120243011Y-90606590D01*
X120250110Y-90729715D01*
X120251247Y-90734761D01*
X120251248Y-90734767D01*
X120275191Y-90841007D01*
X120299222Y-90947639D01*
X120383266Y-91154616D01*
X120404319Y-91188972D01*
X120484521Y-91319849D01*
X120499987Y-91345088D01*
X120646250Y-91513938D01*
X120818126Y-91656632D01*
X120886313Y-91696477D01*
X120891445Y-91699476D01*
X120940169Y-91751114D01*
X120953240Y-91820897D01*
X120926509Y-91886669D01*
X120886055Y-91920027D01*
X120873607Y-91926507D01*
X120869474Y-91929610D01*
X120869471Y-91929612D01*
X120845247Y-91947800D01*
X120694965Y-92060635D01*
X120540629Y-92222138D01*
X120414743Y-92406680D01*
X120320688Y-92609305D01*
X120260989Y-92824570D01*
X120237251Y-93046695D01*
X111508500Y-93046695D01*
X111508500Y-86380000D01*
X143686502Y-86380000D01*
X143706457Y-86608087D01*
X143707881Y-86613400D01*
X143707881Y-86613402D01*
X143732364Y-86704771D01*
X143765716Y-86829243D01*
X143768039Y-86834224D01*
X143768039Y-86834225D01*
X143860151Y-87031762D01*
X143860154Y-87031767D01*
X143862477Y-87036749D01*
X143993802Y-87224300D01*
X144155700Y-87386198D01*
X144160208Y-87389355D01*
X144160211Y-87389357D01*
X144238389Y-87444098D01*
X144343251Y-87517523D01*
X144348233Y-87519846D01*
X144348238Y-87519849D01*
X144545775Y-87611961D01*
X144550757Y-87614284D01*
X144556065Y-87615706D01*
X144556067Y-87615707D01*
X144766598Y-87672119D01*
X144766600Y-87672119D01*
X144771913Y-87673543D01*
X145000000Y-87693498D01*
X145228087Y-87673543D01*
X145233400Y-87672119D01*
X145233402Y-87672119D01*
X145443933Y-87615707D01*
X145443935Y-87615706D01*
X145449243Y-87614284D01*
X145454225Y-87611961D01*
X145651762Y-87519849D01*
X145651767Y-87519846D01*
X145656749Y-87517523D01*
X145761611Y-87444098D01*
X145839789Y-87389357D01*
X145839792Y-87389355D01*
X145844300Y-87386198D01*
X146006198Y-87224300D01*
X146137523Y-87036749D01*
X146139846Y-87031767D01*
X146139849Y-87031762D01*
X146231961Y-86834225D01*
X146231961Y-86834224D01*
X146234284Y-86829243D01*
X146267637Y-86704771D01*
X146292119Y-86613402D01*
X146292119Y-86613400D01*
X146293543Y-86608087D01*
X146313498Y-86380000D01*
X149686502Y-86380000D01*
X149706457Y-86608087D01*
X149707881Y-86613400D01*
X149707881Y-86613402D01*
X149732364Y-86704771D01*
X149765716Y-86829243D01*
X149768039Y-86834224D01*
X149768039Y-86834225D01*
X149860151Y-87031762D01*
X149860154Y-87031767D01*
X149862477Y-87036749D01*
X149993802Y-87224300D01*
X150155700Y-87386198D01*
X150160208Y-87389355D01*
X150160211Y-87389357D01*
X150238389Y-87444098D01*
X150343251Y-87517523D01*
X150348233Y-87519846D01*
X150348238Y-87519849D01*
X150545775Y-87611961D01*
X150550757Y-87614284D01*
X150556065Y-87615706D01*
X150556067Y-87615707D01*
X150766598Y-87672119D01*
X150766600Y-87672119D01*
X150771913Y-87673543D01*
X151000000Y-87693498D01*
X151228087Y-87673543D01*
X151233400Y-87672119D01*
X151233402Y-87672119D01*
X151443933Y-87615707D01*
X151443935Y-87615706D01*
X151449243Y-87614284D01*
X151454225Y-87611961D01*
X151651762Y-87519849D01*
X151651767Y-87519846D01*
X151656749Y-87517523D01*
X151761611Y-87444098D01*
X151839789Y-87389357D01*
X151839792Y-87389355D01*
X151844300Y-87386198D01*
X152006198Y-87224300D01*
X152137523Y-87036749D01*
X152139846Y-87031767D01*
X152139849Y-87031762D01*
X152231961Y-86834225D01*
X152231961Y-86834224D01*
X152234284Y-86829243D01*
X152267637Y-86704771D01*
X152292119Y-86613402D01*
X152292119Y-86613400D01*
X152293543Y-86608087D01*
X152313498Y-86380000D01*
X152293543Y-86151913D01*
X152292119Y-86146598D01*
X152235707Y-85936067D01*
X152235706Y-85936065D01*
X152234284Y-85930757D01*
X152193969Y-85844300D01*
X152139849Y-85728238D01*
X152139846Y-85728233D01*
X152137523Y-85723251D01*
X152006198Y-85535700D01*
X151844300Y-85373802D01*
X151839792Y-85370645D01*
X151839789Y-85370643D01*
X151761611Y-85315902D01*
X151656749Y-85242477D01*
X151651767Y-85240154D01*
X151651762Y-85240151D01*
X151454225Y-85148039D01*
X151454224Y-85148039D01*
X151449243Y-85145716D01*
X151443935Y-85144294D01*
X151443933Y-85144293D01*
X151233402Y-85087881D01*
X151233400Y-85087881D01*
X151228087Y-85086457D01*
X151000000Y-85066502D01*
X150771913Y-85086457D01*
X150766600Y-85087881D01*
X150766598Y-85087881D01*
X150556067Y-85144293D01*
X150556065Y-85144294D01*
X150550757Y-85145716D01*
X150545776Y-85148039D01*
X150545775Y-85148039D01*
X150348238Y-85240151D01*
X150348233Y-85240154D01*
X150343251Y-85242477D01*
X150238389Y-85315902D01*
X150160211Y-85370643D01*
X150160208Y-85370645D01*
X150155700Y-85373802D01*
X149993802Y-85535700D01*
X149862477Y-85723251D01*
X149860154Y-85728233D01*
X149860151Y-85728238D01*
X149806031Y-85844300D01*
X149765716Y-85930757D01*
X149764294Y-85936065D01*
X149764293Y-85936067D01*
X149707881Y-86146598D01*
X149706457Y-86151913D01*
X149686502Y-86380000D01*
X146313498Y-86380000D01*
X146293543Y-86151913D01*
X146292119Y-86146598D01*
X146235707Y-85936067D01*
X146235706Y-85936065D01*
X146234284Y-85930757D01*
X146193969Y-85844300D01*
X146139849Y-85728238D01*
X146139846Y-85728233D01*
X146137523Y-85723251D01*
X146006198Y-85535700D01*
X145844300Y-85373802D01*
X145839792Y-85370645D01*
X145839789Y-85370643D01*
X145761611Y-85315902D01*
X145656749Y-85242477D01*
X145651767Y-85240154D01*
X145651762Y-85240151D01*
X145454225Y-85148039D01*
X145454224Y-85148039D01*
X145449243Y-85145716D01*
X145443935Y-85144294D01*
X145443933Y-85144293D01*
X145233402Y-85087881D01*
X145233400Y-85087881D01*
X145228087Y-85086457D01*
X145000000Y-85066502D01*
X144771913Y-85086457D01*
X144766600Y-85087881D01*
X144766598Y-85087881D01*
X144556067Y-85144293D01*
X144556065Y-85144294D01*
X144550757Y-85145716D01*
X144545776Y-85148039D01*
X144545775Y-85148039D01*
X144348238Y-85240151D01*
X144348233Y-85240154D01*
X144343251Y-85242477D01*
X144238389Y-85315902D01*
X144160211Y-85370643D01*
X144160208Y-85370645D01*
X144155700Y-85373802D01*
X143993802Y-85535700D01*
X143862477Y-85723251D01*
X143860154Y-85728233D01*
X143860151Y-85728238D01*
X143806031Y-85844300D01*
X143765716Y-85930757D01*
X143764294Y-85936065D01*
X143764293Y-85936067D01*
X143707881Y-86146598D01*
X143706457Y-86151913D01*
X143686502Y-86380000D01*
X111508500Y-86380000D01*
X111508500Y-85000000D01*
X124066502Y-85000000D01*
X124086457Y-85228087D01*
X124087881Y-85233400D01*
X124087881Y-85233402D01*
X124089690Y-85240151D01*
X124145716Y-85449243D01*
X124148039Y-85454224D01*
X124148039Y-85454225D01*
X124240151Y-85651762D01*
X124240154Y-85651767D01*
X124242477Y-85656749D01*
X124373802Y-85844300D01*
X124535700Y-86006198D01*
X124540208Y-86009355D01*
X124540211Y-86009357D01*
X124618389Y-86064098D01*
X124723251Y-86137523D01*
X124728233Y-86139846D01*
X124728238Y-86139849D01*
X124925775Y-86231961D01*
X124930757Y-86234284D01*
X124936065Y-86235706D01*
X124936067Y-86235707D01*
X125146598Y-86292119D01*
X125146600Y-86292119D01*
X125151913Y-86293543D01*
X125380000Y-86313498D01*
X125608087Y-86293543D01*
X125613400Y-86292119D01*
X125613402Y-86292119D01*
X125823933Y-86235707D01*
X125823935Y-86235706D01*
X125829243Y-86234284D01*
X125834225Y-86231961D01*
X126031762Y-86139849D01*
X126031767Y-86139846D01*
X126036749Y-86137523D01*
X126141611Y-86064098D01*
X126219789Y-86009357D01*
X126219792Y-86009355D01*
X126224300Y-86006198D01*
X126386198Y-85844300D01*
X126517523Y-85656749D01*
X126519846Y-85651767D01*
X126519849Y-85651762D01*
X126611961Y-85454225D01*
X126611961Y-85454224D01*
X126614284Y-85449243D01*
X126670311Y-85240151D01*
X126672119Y-85233402D01*
X126672119Y-85233400D01*
X126673543Y-85228087D01*
X126693498Y-85000000D01*
X139306502Y-85000000D01*
X139326457Y-85228087D01*
X139327881Y-85233400D01*
X139327881Y-85233402D01*
X139329690Y-85240151D01*
X139385716Y-85449243D01*
X139388039Y-85454224D01*
X139388039Y-85454225D01*
X139480151Y-85651762D01*
X139480154Y-85651767D01*
X139482477Y-85656749D01*
X139613802Y-85844300D01*
X139775700Y-86006198D01*
X139780208Y-86009355D01*
X139780211Y-86009357D01*
X139858389Y-86064098D01*
X139963251Y-86137523D01*
X139968233Y-86139846D01*
X139968238Y-86139849D01*
X140165775Y-86231961D01*
X140170757Y-86234284D01*
X140176065Y-86235706D01*
X140176067Y-86235707D01*
X140386598Y-86292119D01*
X140386600Y-86292119D01*
X140391913Y-86293543D01*
X140620000Y-86313498D01*
X140848087Y-86293543D01*
X140853400Y-86292119D01*
X140853402Y-86292119D01*
X141063933Y-86235707D01*
X141063935Y-86235706D01*
X141069243Y-86234284D01*
X141074225Y-86231961D01*
X141271762Y-86139849D01*
X141271767Y-86139846D01*
X141276749Y-86137523D01*
X141381611Y-86064098D01*
X141459789Y-86009357D01*
X141459792Y-86009355D01*
X141464300Y-86006198D01*
X141626198Y-85844300D01*
X141757523Y-85656749D01*
X141759846Y-85651767D01*
X141759849Y-85651762D01*
X141851961Y-85454225D01*
X141851961Y-85454224D01*
X141854284Y-85449243D01*
X141910311Y-85240151D01*
X141912119Y-85233402D01*
X141912119Y-85233400D01*
X141913543Y-85228087D01*
X141933498Y-85000000D01*
X141913543Y-84771913D01*
X141854284Y-84550757D01*
X141851961Y-84545775D01*
X141759849Y-84348238D01*
X141759846Y-84348233D01*
X141757523Y-84343251D01*
X141626198Y-84155700D01*
X141464300Y-83993802D01*
X141459792Y-83990645D01*
X141459789Y-83990643D01*
X141381611Y-83935902D01*
X141276749Y-83862477D01*
X141271767Y-83860154D01*
X141271762Y-83860151D01*
X141074225Y-83768039D01*
X141074224Y-83768039D01*
X141069243Y-83765716D01*
X141063935Y-83764294D01*
X141063933Y-83764293D01*
X140853402Y-83707881D01*
X140853400Y-83707881D01*
X140848087Y-83706457D01*
X140620000Y-83686502D01*
X140391913Y-83706457D01*
X140386600Y-83707881D01*
X140386598Y-83707881D01*
X140176067Y-83764293D01*
X140176065Y-83764294D01*
X140170757Y-83765716D01*
X140165776Y-83768039D01*
X140165775Y-83768039D01*
X139968238Y-83860151D01*
X139968233Y-83860154D01*
X139963251Y-83862477D01*
X139858389Y-83935902D01*
X139780211Y-83990643D01*
X139780208Y-83990645D01*
X139775700Y-83993802D01*
X139613802Y-84155700D01*
X139482477Y-84343251D01*
X139480154Y-84348233D01*
X139480151Y-84348238D01*
X139388039Y-84545775D01*
X139385716Y-84550757D01*
X139326457Y-84771913D01*
X139306502Y-85000000D01*
X126693498Y-85000000D01*
X126673543Y-84771913D01*
X126614284Y-84550757D01*
X126611961Y-84545775D01*
X126519849Y-84348238D01*
X126519846Y-84348233D01*
X126517523Y-84343251D01*
X126386198Y-84155700D01*
X126224300Y-83993802D01*
X126219792Y-83990645D01*
X126219789Y-83990643D01*
X126141611Y-83935902D01*
X126036749Y-83862477D01*
X126031767Y-83860154D01*
X126031762Y-83860151D01*
X125834225Y-83768039D01*
X125834224Y-83768039D01*
X125829243Y-83765716D01*
X125823935Y-83764294D01*
X125823933Y-83764293D01*
X125613402Y-83707881D01*
X125613400Y-83707881D01*
X125608087Y-83706457D01*
X125380000Y-83686502D01*
X125151913Y-83706457D01*
X125146600Y-83707881D01*
X125146598Y-83707881D01*
X124936067Y-83764293D01*
X124936065Y-83764294D01*
X124930757Y-83765716D01*
X124925776Y-83768039D01*
X124925775Y-83768039D01*
X124728238Y-83860151D01*
X124728233Y-83860154D01*
X124723251Y-83862477D01*
X124618389Y-83935902D01*
X124540211Y-83990643D01*
X124540208Y-83990645D01*
X124535700Y-83993802D01*
X124373802Y-84155700D01*
X124242477Y-84343251D01*
X124240154Y-84348233D01*
X124240151Y-84348238D01*
X124148039Y-84545775D01*
X124145716Y-84550757D01*
X124086457Y-84771913D01*
X124066502Y-85000000D01*
X111508500Y-85000000D01*
X111508500Y-80910607D01*
X114354933Y-80910607D01*
X114354988Y-80911386D01*
X114360342Y-80919436D01*
X114396960Y-80953821D01*
X114401638Y-80957803D01*
X114707386Y-81193260D01*
X114712429Y-81196765D01*
X115039694Y-81401262D01*
X115045051Y-81404256D01*
X115390709Y-81575843D01*
X115396349Y-81578307D01*
X115757076Y-81715334D01*
X115762948Y-81717242D01*
X116135344Y-81818420D01*
X116141321Y-81819734D01*
X116521843Y-81884095D01*
X116527929Y-81884820D01*
X116912896Y-81911740D01*
X116919032Y-81911868D01*
X117304787Y-81901093D01*
X117310918Y-81900621D01*
X117693755Y-81852257D01*
X117699828Y-81851187D01*
X118076135Y-81765692D01*
X118082050Y-81764040D01*
X118448215Y-81642234D01*
X118453949Y-81640010D01*
X118806497Y-81483046D01*
X118811966Y-81480283D01*
X119147516Y-81289664D01*
X119152690Y-81286380D01*
X119468034Y-81063929D01*
X119472872Y-81060149D01*
X119635240Y-80919998D01*
X119643655Y-80906958D01*
X119637716Y-80896926D01*
X117012812Y-78272022D01*
X116998868Y-78264408D01*
X116997035Y-78264539D01*
X116990420Y-78268790D01*
X114362547Y-80896663D01*
X114354933Y-80910607D01*
X111508500Y-80910607D01*
X111508500Y-78053250D01*
X111510246Y-78032345D01*
X111512770Y-78017344D01*
X111512770Y-78017341D01*
X111513576Y-78012552D01*
X111513729Y-78000000D01*
X111513039Y-77995185D01*
X111513039Y-77995178D01*
X111511316Y-77983148D01*
X111510151Y-77960077D01*
X111512514Y-77902965D01*
X111514826Y-77847061D01*
X112987665Y-77847061D01*
X113001132Y-78232706D01*
X113001647Y-78238838D01*
X113052685Y-78621347D01*
X113053792Y-78627383D01*
X113141913Y-79003090D01*
X113143608Y-79009000D01*
X113267968Y-79374306D01*
X113270235Y-79380031D01*
X113429643Y-79731444D01*
X113432465Y-79736934D01*
X113625407Y-80071119D01*
X113628737Y-80076287D01*
X113853375Y-80390059D01*
X113857197Y-80394881D01*
X113980033Y-80535195D01*
X113993247Y-80543593D01*
X114003043Y-80537747D01*
X116627978Y-77912812D01*
X116634356Y-77901132D01*
X117364408Y-77901132D01*
X117364539Y-77902965D01*
X117368790Y-77909580D01*
X119997364Y-80538154D01*
X120011308Y-80545768D01*
X120012323Y-80545696D01*
X120020054Y-80540593D01*
X120035567Y-80524302D01*
X120039595Y-80519637D01*
X120250259Y-80250000D01*
X123487697Y-80250000D01*
X123506874Y-80469197D01*
X123563823Y-80681733D01*
X123656814Y-80881151D01*
X123783020Y-81061393D01*
X123938607Y-81216980D01*
X123943115Y-81220137D01*
X123943118Y-81220139D01*
X124114339Y-81340029D01*
X124118848Y-81343186D01*
X124123830Y-81345509D01*
X124123835Y-81345512D01*
X124249812Y-81404256D01*
X124318267Y-81436177D01*
X124323575Y-81437599D01*
X124323577Y-81437600D01*
X124389683Y-81455313D01*
X124530803Y-81493126D01*
X124750000Y-81512303D01*
X124969197Y-81493126D01*
X125110317Y-81455313D01*
X125176423Y-81437600D01*
X125176425Y-81437599D01*
X125181733Y-81436177D01*
X125250188Y-81404256D01*
X125376165Y-81345512D01*
X125376170Y-81345509D01*
X125381152Y-81343186D01*
X125385661Y-81340029D01*
X125556882Y-81220139D01*
X125556885Y-81220137D01*
X125561393Y-81216980D01*
X125716980Y-81061393D01*
X125843186Y-80881151D01*
X125936177Y-80681733D01*
X125993126Y-80469197D01*
X126012303Y-80250000D01*
X129987697Y-80250000D01*
X130006874Y-80469197D01*
X130063823Y-80681733D01*
X130156814Y-80881151D01*
X130283020Y-81061393D01*
X130438607Y-81216980D01*
X130443115Y-81220137D01*
X130443118Y-81220139D01*
X130614339Y-81340029D01*
X130618848Y-81343186D01*
X130623830Y-81345509D01*
X130623835Y-81345512D01*
X130749812Y-81404256D01*
X130818267Y-81436177D01*
X130823575Y-81437599D01*
X130823577Y-81437600D01*
X130889683Y-81455313D01*
X131030803Y-81493126D01*
X131250000Y-81512303D01*
X131469197Y-81493126D01*
X131610317Y-81455313D01*
X131676423Y-81437600D01*
X131676425Y-81437599D01*
X131681733Y-81436177D01*
X131750188Y-81404256D01*
X131876165Y-81345512D01*
X131876170Y-81345509D01*
X131881152Y-81343186D01*
X131885661Y-81340029D01*
X132056882Y-81220139D01*
X132056885Y-81220137D01*
X132061393Y-81216980D01*
X132216980Y-81061393D01*
X132322561Y-80910607D01*
X147354933Y-80910607D01*
X147354988Y-80911386D01*
X147360342Y-80919436D01*
X147396960Y-80953821D01*
X147401638Y-80957803D01*
X147707386Y-81193260D01*
X147712429Y-81196765D01*
X148039694Y-81401262D01*
X148045051Y-81404256D01*
X148390709Y-81575843D01*
X148396349Y-81578307D01*
X148757076Y-81715334D01*
X148762948Y-81717242D01*
X149135344Y-81818420D01*
X149141321Y-81819734D01*
X149521843Y-81884095D01*
X149527929Y-81884820D01*
X149912896Y-81911740D01*
X149919032Y-81911868D01*
X150304787Y-81901093D01*
X150310918Y-81900621D01*
X150693755Y-81852257D01*
X150699828Y-81851187D01*
X151076135Y-81765692D01*
X151082050Y-81764040D01*
X151448215Y-81642234D01*
X151453949Y-81640010D01*
X151806497Y-81483046D01*
X151811966Y-81480283D01*
X152147516Y-81289664D01*
X152152690Y-81286380D01*
X152468034Y-81063929D01*
X152472872Y-81060149D01*
X152635240Y-80919998D01*
X152643655Y-80906958D01*
X152637716Y-80896926D01*
X150012812Y-78272022D01*
X149998868Y-78264408D01*
X149997035Y-78264539D01*
X149990420Y-78268790D01*
X147362547Y-80896663D01*
X147354933Y-80910607D01*
X132322561Y-80910607D01*
X132343186Y-80881151D01*
X132436177Y-80681733D01*
X132493126Y-80469197D01*
X132512303Y-80250000D01*
X132493126Y-80030803D01*
X132436177Y-79818267D01*
X132433854Y-79813285D01*
X132345509Y-79623830D01*
X132345507Y-79623827D01*
X132343186Y-79618849D01*
X132216980Y-79438607D01*
X132061393Y-79283020D01*
X132056885Y-79279863D01*
X132056882Y-79279861D01*
X131885661Y-79159971D01*
X131885658Y-79159969D01*
X131881152Y-79156814D01*
X131876170Y-79154491D01*
X131876165Y-79154488D01*
X131686715Y-79066146D01*
X131686713Y-79066145D01*
X131681733Y-79063823D01*
X131676425Y-79062401D01*
X131676423Y-79062400D01*
X131548510Y-79028126D01*
X131469197Y-79006874D01*
X131250000Y-78987697D01*
X131030803Y-79006874D01*
X130951490Y-79028126D01*
X130823577Y-79062400D01*
X130823575Y-79062401D01*
X130818267Y-79063823D01*
X130813287Y-79066145D01*
X130813285Y-79066146D01*
X130623830Y-79154491D01*
X130623827Y-79154493D01*
X130618849Y-79156814D01*
X130438607Y-79283020D01*
X130283020Y-79438607D01*
X130156814Y-79618849D01*
X130154493Y-79623827D01*
X130154491Y-79623830D01*
X130066146Y-79813285D01*
X130063823Y-79818267D01*
X130006874Y-80030803D01*
X129987697Y-80250000D01*
X126012303Y-80250000D01*
X125993126Y-80030803D01*
X125936177Y-79818267D01*
X125933854Y-79813285D01*
X125845509Y-79623830D01*
X125845507Y-79623827D01*
X125843186Y-79618849D01*
X125716980Y-79438607D01*
X125561393Y-79283020D01*
X125556885Y-79279863D01*
X125556882Y-79279861D01*
X125385661Y-79159971D01*
X125385658Y-79159969D01*
X125381152Y-79156814D01*
X125376170Y-79154491D01*
X125376165Y-79154488D01*
X125186715Y-79066146D01*
X125186713Y-79066145D01*
X125181733Y-79063823D01*
X125176425Y-79062401D01*
X125176423Y-79062400D01*
X125048510Y-79028126D01*
X124969197Y-79006874D01*
X124750000Y-78987697D01*
X124530803Y-79006874D01*
X124451490Y-79028126D01*
X124323577Y-79062400D01*
X124323575Y-79062401D01*
X124318267Y-79063823D01*
X124313287Y-79066145D01*
X124313285Y-79066146D01*
X124123830Y-79154491D01*
X124123827Y-79154493D01*
X124118849Y-79156814D01*
X123938607Y-79283020D01*
X123783020Y-79438607D01*
X123656814Y-79618849D01*
X123654493Y-79623827D01*
X123654491Y-79623830D01*
X123566146Y-79813285D01*
X123563823Y-79818267D01*
X123506874Y-80030803D01*
X123487697Y-80250000D01*
X120250259Y-80250000D01*
X120277168Y-80215558D01*
X120280722Y-80210518D01*
X120487486Y-79884712D01*
X120490529Y-79879356D01*
X120664520Y-79534910D01*
X120667018Y-79529300D01*
X120806568Y-79169518D01*
X120808509Y-79163684D01*
X120869659Y-78944669D01*
X137592001Y-78944669D01*
X137592371Y-78951490D01*
X137597895Y-79002352D01*
X137601521Y-79017604D01*
X137646676Y-79138054D01*
X137655214Y-79153649D01*
X137731715Y-79255724D01*
X137744276Y-79268285D01*
X137846351Y-79344786D01*
X137861946Y-79353324D01*
X137982394Y-79398478D01*
X137997649Y-79402105D01*
X138048514Y-79407631D01*
X138055328Y-79408000D01*
X138727885Y-79408000D01*
X138743124Y-79403525D01*
X138744329Y-79402135D01*
X138746000Y-79394452D01*
X138746000Y-79389884D01*
X139254000Y-79389884D01*
X139258475Y-79405123D01*
X139259865Y-79406328D01*
X139267548Y-79407999D01*
X139944669Y-79407999D01*
X139951490Y-79407629D01*
X140002352Y-79402105D01*
X140017604Y-79398479D01*
X140138054Y-79353324D01*
X140153649Y-79344786D01*
X140255724Y-79268285D01*
X140268285Y-79255724D01*
X140344786Y-79153649D01*
X140353324Y-79138054D01*
X140374773Y-79080840D01*
X140417415Y-79024075D01*
X140483977Y-78999376D01*
X140553325Y-79014584D01*
X140573240Y-79028126D01*
X140729349Y-79157730D01*
X140929322Y-79274584D01*
X140934147Y-79276426D01*
X140934148Y-79276427D01*
X140961613Y-79286915D01*
X141145694Y-79357209D01*
X141150760Y-79358240D01*
X141150761Y-79358240D01*
X141203846Y-79369040D01*
X141372656Y-79403385D01*
X141503324Y-79408176D01*
X141598949Y-79411683D01*
X141598953Y-79411683D01*
X141604113Y-79411872D01*
X141609233Y-79411216D01*
X141609235Y-79411216D01*
X141708668Y-79398478D01*
X141833847Y-79382442D01*
X141838795Y-79380957D01*
X141838802Y-79380956D01*
X142050747Y-79317369D01*
X142055690Y-79315886D01*
X142060324Y-79313616D01*
X142259049Y-79216262D01*
X142259052Y-79216260D01*
X142263684Y-79213991D01*
X142452243Y-79079494D01*
X142616303Y-78916005D01*
X142751458Y-78727917D01*
X142854078Y-78520280D01*
X142921408Y-78298671D01*
X142951640Y-78069041D01*
X142952310Y-78041621D01*
X142953245Y-78003365D01*
X142953245Y-78003361D01*
X142953327Y-78000000D01*
X142940753Y-77847061D01*
X145987665Y-77847061D01*
X146001132Y-78232706D01*
X146001647Y-78238838D01*
X146052685Y-78621347D01*
X146053792Y-78627383D01*
X146141913Y-79003090D01*
X146143608Y-79009000D01*
X146267968Y-79374306D01*
X146270235Y-79380031D01*
X146429643Y-79731444D01*
X146432465Y-79736934D01*
X146625407Y-80071119D01*
X146628737Y-80076287D01*
X146853375Y-80390059D01*
X146857197Y-80394881D01*
X146980033Y-80535195D01*
X146993247Y-80543593D01*
X147003043Y-80537747D01*
X149627978Y-77912812D01*
X149634356Y-77901132D01*
X150364408Y-77901132D01*
X150364539Y-77902965D01*
X150368790Y-77909580D01*
X152997364Y-80538154D01*
X153011308Y-80545768D01*
X153012323Y-80545696D01*
X153020054Y-80540593D01*
X153035567Y-80524302D01*
X153039595Y-80519637D01*
X153277168Y-80215558D01*
X153280722Y-80210518D01*
X153487486Y-79884712D01*
X153490529Y-79879356D01*
X153664520Y-79534910D01*
X153667018Y-79529300D01*
X153806568Y-79169518D01*
X153808509Y-79163684D01*
X153912288Y-78791988D01*
X153913644Y-78786017D01*
X153980660Y-78405959D01*
X153981427Y-78399886D01*
X154011119Y-78014000D01*
X154011297Y-78010061D01*
X154012806Y-77901974D01*
X154012738Y-77898030D01*
X153993832Y-77511489D01*
X153993231Y-77505365D01*
X153936862Y-77123631D01*
X153935662Y-77117569D01*
X153842312Y-76743165D01*
X153840527Y-76737250D01*
X153711082Y-76373727D01*
X153708739Y-76368043D01*
X153544434Y-76018877D01*
X153541545Y-76013443D01*
X153343955Y-75681983D01*
X153340547Y-75676853D01*
X153111547Y-75366244D01*
X153107667Y-75361487D01*
X153020318Y-75264475D01*
X153006797Y-75256145D01*
X153006720Y-75256146D01*
X152997434Y-75261776D01*
X150372022Y-77887188D01*
X150364408Y-77901132D01*
X149634356Y-77901132D01*
X149635592Y-77898868D01*
X149635461Y-77897035D01*
X149631210Y-77890420D01*
X147003902Y-75263112D01*
X146989958Y-75255498D01*
X146989412Y-75255537D01*
X146981055Y-75261136D01*
X146928077Y-75318347D01*
X146924132Y-75323049D01*
X146690821Y-75630426D01*
X146687343Y-75635504D01*
X146485141Y-75964179D01*
X146482176Y-75969572D01*
X146313014Y-76316406D01*
X146310588Y-76322064D01*
X146176076Y-76683758D01*
X146174218Y-76689615D01*
X146075640Y-77062718D01*
X146074365Y-77068718D01*
X146012667Y-77449648D01*
X146011980Y-77455776D01*
X145987751Y-77840886D01*
X145987665Y-77847061D01*
X142940753Y-77847061D01*
X142934773Y-77774318D01*
X142934772Y-77774312D01*
X142934349Y-77769167D01*
X142877925Y-77544533D01*
X142875866Y-77539797D01*
X142787630Y-77336868D01*
X142787628Y-77336865D01*
X142785570Y-77332131D01*
X142659764Y-77137665D01*
X142503887Y-76966358D01*
X142499836Y-76963159D01*
X142499832Y-76963155D01*
X142326177Y-76826011D01*
X142326172Y-76826008D01*
X142322123Y-76822810D01*
X142317607Y-76820317D01*
X142317604Y-76820315D01*
X142123879Y-76713373D01*
X142123875Y-76713371D01*
X142119355Y-76710876D01*
X142114486Y-76709152D01*
X142114482Y-76709150D01*
X141905903Y-76635288D01*
X141905899Y-76635287D01*
X141901028Y-76633562D01*
X141895935Y-76632655D01*
X141895932Y-76632654D01*
X141678095Y-76593851D01*
X141678089Y-76593850D01*
X141673006Y-76592945D01*
X141595644Y-76592000D01*
X141446581Y-76590179D01*
X141446579Y-76590179D01*
X141441411Y-76590116D01*
X141212464Y-76625150D01*
X140992314Y-76697106D01*
X140987726Y-76699494D01*
X140987722Y-76699496D01*
X140818334Y-76787674D01*
X140786872Y-76804052D01*
X140782739Y-76807155D01*
X140782736Y-76807157D01*
X140614619Y-76933383D01*
X140601655Y-76943117D01*
X140595446Y-76949615D01*
X140583787Y-76961815D01*
X140522263Y-76997245D01*
X140451351Y-76993788D01*
X140393564Y-76952543D01*
X140374711Y-76918994D01*
X140353324Y-76861946D01*
X140344786Y-76846351D01*
X140268285Y-76744276D01*
X140255724Y-76731715D01*
X140153649Y-76655214D01*
X140138054Y-76646676D01*
X140017606Y-76601522D01*
X140002351Y-76597895D01*
X139951486Y-76592369D01*
X139944672Y-76592000D01*
X139272115Y-76592000D01*
X139256876Y-76596475D01*
X139255671Y-76597865D01*
X139254000Y-76605548D01*
X139254000Y-79389884D01*
X138746000Y-79389884D01*
X138746000Y-78272115D01*
X138741525Y-78256876D01*
X138740135Y-78255671D01*
X138732452Y-78254000D01*
X137610116Y-78254000D01*
X137594877Y-78258475D01*
X137593672Y-78259865D01*
X137592001Y-78267548D01*
X137592001Y-78944669D01*
X120869659Y-78944669D01*
X120912288Y-78791988D01*
X120913644Y-78786017D01*
X120980660Y-78405959D01*
X120981427Y-78399886D01*
X121011119Y-78014000D01*
X121011297Y-78010061D01*
X121012806Y-77901974D01*
X121012738Y-77898030D01*
X121004416Y-77727885D01*
X137592000Y-77727885D01*
X137596475Y-77743124D01*
X137597865Y-77744329D01*
X137605548Y-77746000D01*
X138727885Y-77746000D01*
X138743124Y-77741525D01*
X138744329Y-77740135D01*
X138746000Y-77732452D01*
X138746000Y-76610116D01*
X138741525Y-76594877D01*
X138740135Y-76593672D01*
X138732452Y-76592001D01*
X138055331Y-76592001D01*
X138048510Y-76592371D01*
X137997648Y-76597895D01*
X137982396Y-76601521D01*
X137861946Y-76646676D01*
X137846351Y-76655214D01*
X137744276Y-76731715D01*
X137731715Y-76744276D01*
X137655214Y-76846351D01*
X137646676Y-76861946D01*
X137601522Y-76982394D01*
X137597895Y-76997649D01*
X137592369Y-77048514D01*
X137592000Y-77055328D01*
X137592000Y-77727885D01*
X121004416Y-77727885D01*
X120993832Y-77511489D01*
X120993231Y-77505365D01*
X120936862Y-77123631D01*
X120935662Y-77117569D01*
X120842312Y-76743165D01*
X120840527Y-76737250D01*
X120772830Y-76547134D01*
X123492500Y-76547134D01*
X123499255Y-76609316D01*
X123550385Y-76745705D01*
X123637739Y-76862261D01*
X123754295Y-76949615D01*
X123890684Y-77000745D01*
X123952866Y-77007500D01*
X125547134Y-77007500D01*
X125609316Y-77000745D01*
X125745705Y-76949615D01*
X125862261Y-76862261D01*
X125909340Y-76799444D01*
X130565110Y-76799444D01*
X130574406Y-76811459D01*
X130614594Y-76839599D01*
X130624084Y-76845077D01*
X130813456Y-76933383D01*
X130823748Y-76937129D01*
X131025575Y-76991208D01*
X131036370Y-76993111D01*
X131244525Y-77011323D01*
X131255475Y-77011323D01*
X131463630Y-76993111D01*
X131474425Y-76991208D01*
X131676252Y-76937129D01*
X131686544Y-76933383D01*
X131875916Y-76845077D01*
X131885406Y-76839599D01*
X131926432Y-76810872D01*
X131934806Y-76800396D01*
X131927740Y-76786951D01*
X131262811Y-76122021D01*
X131248868Y-76114408D01*
X131247034Y-76114539D01*
X131240420Y-76118790D01*
X130571537Y-76787674D01*
X130565110Y-76799444D01*
X125909340Y-76799444D01*
X125949615Y-76745705D01*
X126000745Y-76609316D01*
X126007500Y-76547134D01*
X126007500Y-75755475D01*
X129988677Y-75755475D01*
X130006889Y-75963630D01*
X130008792Y-75974425D01*
X130062871Y-76176252D01*
X130066617Y-76186544D01*
X130154923Y-76375916D01*
X130160401Y-76385406D01*
X130189128Y-76426432D01*
X130199604Y-76434806D01*
X130213049Y-76427740D01*
X130877979Y-75762811D01*
X130884356Y-75751132D01*
X131614408Y-75751132D01*
X131614539Y-75752966D01*
X131618790Y-75759580D01*
X132287674Y-76428463D01*
X132299444Y-76434890D01*
X132311459Y-76425594D01*
X132339599Y-76385406D01*
X132345077Y-76375916D01*
X132433383Y-76186544D01*
X132437129Y-76176252D01*
X132491208Y-75974425D01*
X132493111Y-75963630D01*
X132511323Y-75755475D01*
X132511323Y-75744525D01*
X132493111Y-75536370D01*
X132491208Y-75525575D01*
X132437129Y-75323748D01*
X132433383Y-75313456D01*
X132345077Y-75124084D01*
X132339599Y-75114594D01*
X132310872Y-75073568D01*
X132300396Y-75065194D01*
X132286951Y-75072260D01*
X131622021Y-75737189D01*
X131614408Y-75751132D01*
X130884356Y-75751132D01*
X130885592Y-75748868D01*
X130885461Y-75747034D01*
X130881210Y-75740420D01*
X130212326Y-75071537D01*
X130200556Y-75065110D01*
X130188541Y-75074406D01*
X130160401Y-75114594D01*
X130154923Y-75124084D01*
X130066617Y-75313456D01*
X130062871Y-75323748D01*
X130008792Y-75525575D01*
X130006889Y-75536370D01*
X129988677Y-75744525D01*
X129988677Y-75755475D01*
X126007500Y-75755475D01*
X126007500Y-74952866D01*
X126000745Y-74890684D01*
X125949615Y-74754295D01*
X125908626Y-74699604D01*
X130565194Y-74699604D01*
X130572260Y-74713049D01*
X131237189Y-75377979D01*
X131251132Y-75385592D01*
X131252966Y-75385461D01*
X131259580Y-75381210D01*
X131747475Y-74893314D01*
X147356334Y-74893314D01*
X147362084Y-74902874D01*
X149987188Y-77527978D01*
X150001132Y-77535592D01*
X150002965Y-77535461D01*
X150009580Y-77531210D01*
X152636463Y-74904327D01*
X152644077Y-74890383D01*
X152644055Y-74890072D01*
X152638204Y-74881406D01*
X152560143Y-74810127D01*
X152555416Y-74806217D01*
X152246419Y-74575059D01*
X152241313Y-74571614D01*
X151911235Y-74371711D01*
X151905822Y-74368784D01*
X151557808Y-74202044D01*
X151552141Y-74199662D01*
X151189526Y-74067682D01*
X151183638Y-74065860D01*
X150809876Y-73969893D01*
X150803854Y-73968657D01*
X150422485Y-73909618D01*
X150416397Y-73908978D01*
X150031085Y-73887436D01*
X150024933Y-73887393D01*
X149639387Y-73903552D01*
X149633261Y-73904109D01*
X149251123Y-73957815D01*
X149245070Y-73958970D01*
X148870000Y-74049709D01*
X148864103Y-74051445D01*
X148499681Y-74178350D01*
X148493968Y-74180658D01*
X148143667Y-74342519D01*
X148138213Y-74345371D01*
X147805376Y-74540646D01*
X147800228Y-74544015D01*
X147488025Y-74770843D01*
X147483247Y-74774684D01*
X147364711Y-74879926D01*
X147356334Y-74893314D01*
X131747475Y-74893314D01*
X131928463Y-74712326D01*
X131934890Y-74700556D01*
X131925594Y-74688541D01*
X131885406Y-74660401D01*
X131875916Y-74654923D01*
X131686544Y-74566617D01*
X131676252Y-74562871D01*
X131474425Y-74508792D01*
X131463630Y-74506889D01*
X131255475Y-74488677D01*
X131244525Y-74488677D01*
X131036370Y-74506889D01*
X131025575Y-74508792D01*
X130823748Y-74562871D01*
X130813456Y-74566617D01*
X130624084Y-74654923D01*
X130614594Y-74660401D01*
X130573568Y-74689128D01*
X130565194Y-74699604D01*
X125908626Y-74699604D01*
X125862261Y-74637739D01*
X125745705Y-74550385D01*
X125609316Y-74499255D01*
X125547134Y-74492500D01*
X123952866Y-74492500D01*
X123890684Y-74499255D01*
X123754295Y-74550385D01*
X123637739Y-74637739D01*
X123550385Y-74754295D01*
X123499255Y-74890684D01*
X123492500Y-74952866D01*
X123492500Y-76547134D01*
X120772830Y-76547134D01*
X120711082Y-76373727D01*
X120708739Y-76368043D01*
X120544434Y-76018877D01*
X120541545Y-76013443D01*
X120343955Y-75681983D01*
X120340547Y-75676853D01*
X120111547Y-75366244D01*
X120107667Y-75361487D01*
X120020318Y-75264475D01*
X120006797Y-75256145D01*
X120006720Y-75256146D01*
X119997434Y-75261776D01*
X117372022Y-77887188D01*
X117364408Y-77901132D01*
X116634356Y-77901132D01*
X116635592Y-77898868D01*
X116635461Y-77897035D01*
X116631210Y-77890420D01*
X114003902Y-75263112D01*
X113989958Y-75255498D01*
X113989412Y-75255537D01*
X113981055Y-75261136D01*
X113928077Y-75318347D01*
X113924132Y-75323049D01*
X113690821Y-75630426D01*
X113687343Y-75635504D01*
X113485141Y-75964179D01*
X113482176Y-75969572D01*
X113313014Y-76316406D01*
X113310588Y-76322064D01*
X113176076Y-76683758D01*
X113174218Y-76689615D01*
X113075640Y-77062718D01*
X113074365Y-77068718D01*
X113012667Y-77449648D01*
X113011980Y-77455776D01*
X112987751Y-77840886D01*
X112987665Y-77847061D01*
X111514826Y-77847061D01*
X111527041Y-77551722D01*
X111527901Y-77541344D01*
X111577678Y-77142009D01*
X111582753Y-77101298D01*
X111584466Y-77091030D01*
X111607245Y-76982394D01*
X111675467Y-76657024D01*
X111678023Y-76646928D01*
X111804561Y-76221899D01*
X111807938Y-76212062D01*
X111969147Y-75798919D01*
X111973318Y-75789411D01*
X111987902Y-75759580D01*
X112168082Y-75391015D01*
X112173037Y-75381859D01*
X112248309Y-75255537D01*
X112400030Y-75000915D01*
X112405726Y-74992196D01*
X112476327Y-74893314D01*
X114356334Y-74893314D01*
X114362084Y-74902874D01*
X116987188Y-77527978D01*
X117001132Y-77535592D01*
X117002965Y-77535461D01*
X117009580Y-77531210D01*
X119636463Y-74904327D01*
X119644077Y-74890383D01*
X119644055Y-74890072D01*
X119638204Y-74881406D01*
X119560143Y-74810127D01*
X119555416Y-74806217D01*
X119246419Y-74575059D01*
X119241313Y-74571614D01*
X118911235Y-74371711D01*
X118905822Y-74368784D01*
X118557808Y-74202044D01*
X118552141Y-74199662D01*
X118189526Y-74067682D01*
X118183638Y-74065860D01*
X117809876Y-73969893D01*
X117803854Y-73968657D01*
X117422485Y-73909618D01*
X117416397Y-73908978D01*
X117031085Y-73887436D01*
X117024933Y-73887393D01*
X116639387Y-73903552D01*
X116633261Y-73904109D01*
X116251123Y-73957815D01*
X116245070Y-73958970D01*
X115870000Y-74049709D01*
X115864103Y-74051445D01*
X115499681Y-74178350D01*
X115493968Y-74180658D01*
X115143667Y-74342519D01*
X115138213Y-74345371D01*
X114805376Y-74540646D01*
X114800228Y-74544015D01*
X114488025Y-74770843D01*
X114483247Y-74774684D01*
X114364711Y-74879926D01*
X114356334Y-74893314D01*
X112476327Y-74893314D01*
X112663405Y-74631295D01*
X112669801Y-74623077D01*
X112956413Y-74284674D01*
X112963467Y-74277013D01*
X113277013Y-73963467D01*
X113284674Y-73956413D01*
X113623077Y-73669801D01*
X113631295Y-73663405D01*
X113992196Y-73405726D01*
X114000915Y-73400030D01*
X114381859Y-73173037D01*
X114391017Y-73168081D01*
X114789419Y-72973314D01*
X114798919Y-72969147D01*
X115212062Y-72807938D01*
X115221899Y-72804561D01*
X115646928Y-72678023D01*
X115657024Y-72675467D01*
X115927946Y-72618661D01*
X116091033Y-72584465D01*
X116101298Y-72582753D01*
X116265326Y-72562307D01*
X116541344Y-72527901D01*
X116551722Y-72527041D01*
X116729324Y-72519695D01*
X116956339Y-72510306D01*
X116980920Y-72511698D01*
X116993724Y-72513691D01*
X117002626Y-72512527D01*
X117002628Y-72512527D01*
X117019610Y-72510306D01*
X117025286Y-72509564D01*
X117041621Y-72508500D01*
X149950633Y-72508500D01*
X149970018Y-72510000D01*
G37*
%TD.AperFunction*%
%TD*%
M02*
