M48
; DRILL file {KiCad (6.0.6)} date Sun Feb  5 23:36:45 2023
; FORMAT={-:-/ absolute / inch / decimal}
; #@! TF.CreationDate,2023-02-05T23:36:45-08:00
; #@! TF.GenerationSoftware,Kicad,Pcbnew,(6.0.6)
; #@! TF.FileFunction,Plated,1,2,PTH
FMAT,2
INCH
; #@! TA.AperFunction,Plated,PTH,ComponentDrill
T1C0.0197
; #@! TA.AperFunction,Plated,PTH,ComponentDrill
T2C0.0315
; #@! TA.AperFunction,Plated,PTH,ComponentDrill
T3C0.0354
; #@! TA.AperFunction,Plated,PTH,ComponentDrill
T4C0.0390
; #@! TA.AperFunction,Plated,PTH,ComponentDrill
T5C0.0394
; #@! TA.AperFunction,Plated,PTH,ComponentDrill
T6C0.1378
%
G90
G05
T1
X4.503Y-3.0669
X4.503Y-4.3701
X4.5332Y-2.9939
X4.5332Y-3.14
X4.5332Y-4.297
X4.5332Y-4.4432
X4.6063Y-2.9636
X4.6063Y-3.1703
X4.6063Y-4.2667
X4.6063Y-4.4734
X4.6794Y-2.9939
X4.6794Y-3.14
X4.6794Y-4.297
X4.6794Y-4.4432
X4.7096Y-3.0669
X4.7096Y-4.3701
X5.8022Y-3.0669
X5.8022Y-4.3701
X5.8324Y-2.9939
X5.8324Y-3.14
X5.8324Y-4.297
X5.8324Y-4.4432
X5.9055Y-2.9636
X5.9055Y-3.1703
X5.9055Y-4.2667
X5.9055Y-4.4734
X5.9786Y-2.9939
X5.9786Y-3.14
X5.9786Y-4.297
X5.9786Y-4.4432
X6.0089Y-3.0669
X6.0089Y-4.3701
T2
X4.9362Y-3.3465
X4.9362Y-4.0945
X5.0866Y-3.5504
X5.0866Y-3.8504
X5.1866Y-3.5504
X5.1866Y-3.8504
X5.2866Y-3.5504
X5.2866Y-3.8504
X5.3866Y-3.5504
X5.3866Y-3.8504
X5.5362Y-3.3465
X5.5362Y-4.0945
X5.7087Y-3.4008
X5.7087Y-4.0008
X5.9449Y-3.4008
X5.9449Y-4.0008
T3
X5.4724Y-3.0709
X5.4724Y-4.3701
X5.5724Y-3.0709
X5.5724Y-4.3701
T4
X4.9114Y-2.9823
X4.9114Y-3.1594
X4.9114Y-4.2815
X4.9114Y-4.4587
X5.1673Y-2.9823
X5.1673Y-3.1594
X5.1673Y-4.2815
X5.1673Y-4.4587
T5
X4.7874Y-3.4646
X4.7874Y-3.5646
X4.7874Y-3.6646
X4.7874Y-3.7646
X4.7874Y-3.8646
X4.7874Y-3.9646
T6
X4.6063Y-3.0669
X4.6063Y-4.3701
X5.9055Y-3.0669
X5.9055Y-4.3701
T0
M30
