%TF.GenerationSoftware,KiCad,Pcbnew,(6.0.6)*%
%TF.CreationDate,2023-02-06T16:24:35-08:00*%
%TF.ProjectId,PIC10F200 PCB,50494331-3046-4323-9030-205043422e6b,rev?*%
%TF.SameCoordinates,Original*%
%TF.FileFunction,Legend,Top*%
%TF.FilePolarity,Positive*%
%FSLAX46Y46*%
G04 Gerber Fmt 4.6, Leading zero omitted, Abs format (unit mm)*
G04 Created by KiCad (PCBNEW (6.0.6)) date 2023-02-06 16:24:35*
%MOMM*%
%LPD*%
G01*
G04 APERTURE LIST*
%ADD10C,0.300000*%
%TA.AperFunction,Profile*%
%ADD11C,0.100000*%
%TD*%
%ADD12C,0.150000*%
%ADD13C,0.127000*%
%ADD14C,0.200000*%
%ADD15C,0.120000*%
G04 APERTURE END LIST*
D10*
X142998571Y-103178571D02*
X143498571Y-104678571D01*
X143998571Y-103178571D01*
X145070000Y-104607142D02*
X144927142Y-104678571D01*
X144641428Y-104678571D01*
X144498571Y-104607142D01*
X144427142Y-104464285D01*
X144427142Y-103892857D01*
X144498571Y-103750000D01*
X144641428Y-103678571D01*
X144927142Y-103678571D01*
X145070000Y-103750000D01*
X145141428Y-103892857D01*
X145141428Y-104035714D01*
X144427142Y-104178571D01*
X145784285Y-104678571D02*
X145784285Y-103678571D01*
X145784285Y-103964285D02*
X145855714Y-103821428D01*
X145927142Y-103750000D01*
X146070000Y-103678571D01*
X146212857Y-103678571D01*
X146712857Y-104535714D02*
X146784285Y-104607142D01*
X146712857Y-104678571D01*
X146641428Y-104607142D01*
X146712857Y-104535714D01*
X146712857Y-104678571D01*
X149355714Y-104678571D02*
X148498571Y-104678571D01*
X148927142Y-104678571D02*
X148927142Y-103178571D01*
X148784285Y-103392857D01*
X148641428Y-103535714D01*
X148498571Y-103607142D01*
X149998571Y-104535714D02*
X150070000Y-104607142D01*
X149998571Y-104678571D01*
X149927142Y-104607142D01*
X149998571Y-104535714D01*
X149998571Y-104678571D01*
X150641428Y-103321428D02*
X150712857Y-103250000D01*
X150855714Y-103178571D01*
X151212857Y-103178571D01*
X151355714Y-103250000D01*
X151427142Y-103321428D01*
X151498571Y-103464285D01*
X151498571Y-103607142D01*
X151427142Y-103821428D01*
X150570000Y-104678571D01*
X151498571Y-104678571D01*
D11*
X111000000Y-111000000D02*
G75*
G03*
X117000000Y-117000000I6000000J0D01*
G01*
X156000000Y-78000000D02*
G75*
G03*
X150000000Y-72000000I-6000000J0D01*
G01*
X150000000Y-117000000D02*
X117000000Y-117000000D01*
X150000000Y-117000000D02*
G75*
G03*
X156000000Y-111000000I0J6000000D01*
G01*
X117000000Y-72000000D02*
G75*
G03*
X111000000Y-78000000I0J-6000000D01*
G01*
X117000000Y-72000000D02*
X150000000Y-72000000D01*
X111000000Y-111000000D02*
X111000000Y-78000000D01*
X156000000Y-78000000D02*
X156000000Y-111000000D01*
D10*
X112875714Y-103318571D02*
X112875714Y-104390000D01*
X112804285Y-104604285D01*
X112661428Y-104747142D01*
X112447142Y-104818571D01*
X112304285Y-104818571D01*
X114304285Y-104818571D02*
X113590000Y-104818571D01*
X113590000Y-103318571D01*
X115661428Y-104675714D02*
X115590000Y-104747142D01*
X115375714Y-104818571D01*
X115232857Y-104818571D01*
X115018571Y-104747142D01*
X114875714Y-104604285D01*
X114804285Y-104461428D01*
X114732857Y-104175714D01*
X114732857Y-103961428D01*
X114804285Y-103675714D01*
X114875714Y-103532857D01*
X115018571Y-103390000D01*
X115232857Y-103318571D01*
X115375714Y-103318571D01*
X115590000Y-103390000D01*
X115661428Y-103461428D01*
X117447142Y-104818571D02*
X117447142Y-103318571D01*
X118018571Y-103318571D01*
X118161428Y-103390000D01*
X118232857Y-103461428D01*
X118304285Y-103604285D01*
X118304285Y-103818571D01*
X118232857Y-103961428D01*
X118161428Y-104032857D01*
X118018571Y-104104285D01*
X117447142Y-104104285D01*
X119804285Y-104675714D02*
X119732857Y-104747142D01*
X119518571Y-104818571D01*
X119375714Y-104818571D01*
X119161428Y-104747142D01*
X119018571Y-104604285D01*
X118947142Y-104461428D01*
X118875714Y-104175714D01*
X118875714Y-103961428D01*
X118947142Y-103675714D01*
X119018571Y-103532857D01*
X119161428Y-103390000D01*
X119375714Y-103318571D01*
X119518571Y-103318571D01*
X119732857Y-103390000D01*
X119804285Y-103461428D01*
X120947142Y-104032857D02*
X121161428Y-104104285D01*
X121232857Y-104175714D01*
X121304285Y-104318571D01*
X121304285Y-104532857D01*
X121232857Y-104675714D01*
X121161428Y-104747142D01*
X121018571Y-104818571D01*
X120447142Y-104818571D01*
X120447142Y-103318571D01*
X120947142Y-103318571D01*
X121090000Y-103390000D01*
X121161428Y-103461428D01*
X121232857Y-103604285D01*
X121232857Y-103747142D01*
X121161428Y-103890000D01*
X121090000Y-103961428D01*
X120947142Y-104032857D01*
X120447142Y-104032857D01*
D12*
%TO.C,SW1*%
X124796442Y-74410862D02*
X124886534Y-74440892D01*
X125036687Y-74440892D01*
X125096748Y-74410862D01*
X125126779Y-74380831D01*
X125156810Y-74320770D01*
X125156810Y-74260709D01*
X125126779Y-74200647D01*
X125096748Y-74170617D01*
X125036687Y-74140586D01*
X124916565Y-74110556D01*
X124856503Y-74080525D01*
X124826473Y-74050494D01*
X124796442Y-73990433D01*
X124796442Y-73930372D01*
X124826473Y-73870311D01*
X124856503Y-73840280D01*
X124916565Y-73810249D01*
X125066718Y-73810249D01*
X125156810Y-73840280D01*
X125367024Y-73810249D02*
X125517177Y-74440892D01*
X125637300Y-73990433D01*
X125757422Y-74440892D01*
X125907575Y-73810249D01*
X126478157Y-74440892D02*
X126117789Y-74440892D01*
X126297973Y-74440892D02*
X126297973Y-73810249D01*
X126237912Y-73900341D01*
X126177851Y-73960402D01*
X126117789Y-73990433D01*
%TO.C,H3*%
X116238095Y-106952380D02*
X116238095Y-105952380D01*
X116238095Y-106428571D02*
X116809523Y-106428571D01*
X116809523Y-106952380D02*
X116809523Y-105952380D01*
X117190476Y-105952380D02*
X117809523Y-105952380D01*
X117476190Y-106333333D01*
X117619047Y-106333333D01*
X117714285Y-106380952D01*
X117761904Y-106428571D01*
X117809523Y-106523809D01*
X117809523Y-106761904D01*
X117761904Y-106857142D01*
X117714285Y-106904761D01*
X117619047Y-106952380D01*
X117333333Y-106952380D01*
X117238095Y-106904761D01*
X117190476Y-106857142D01*
%TO.C,SW2*%
X124796442Y-107410862D02*
X124886534Y-107440892D01*
X125036687Y-107440892D01*
X125096748Y-107410862D01*
X125126779Y-107380831D01*
X125156810Y-107320770D01*
X125156810Y-107260709D01*
X125126779Y-107200647D01*
X125096748Y-107170617D01*
X125036687Y-107140586D01*
X124916565Y-107110556D01*
X124856503Y-107080525D01*
X124826473Y-107050494D01*
X124796442Y-106990433D01*
X124796442Y-106930372D01*
X124826473Y-106870311D01*
X124856503Y-106840280D01*
X124916565Y-106810249D01*
X125066718Y-106810249D01*
X125156810Y-106840280D01*
X125367024Y-106810249D02*
X125517177Y-107440892D01*
X125637300Y-106990433D01*
X125757422Y-107440892D01*
X125907575Y-106810249D01*
X126117789Y-106870311D02*
X126147820Y-106840280D01*
X126207881Y-106810249D01*
X126358034Y-106810249D01*
X126418096Y-106840280D01*
X126448126Y-106870311D01*
X126478157Y-106930372D01*
X126478157Y-106990433D01*
X126448126Y-107080525D01*
X126087759Y-107440892D01*
X126478157Y-107440892D01*
%TO.C,U1*%
X125322380Y-94751904D02*
X126131904Y-94751904D01*
X126227142Y-94704285D01*
X126274761Y-94656666D01*
X126322380Y-94561428D01*
X126322380Y-94370952D01*
X126274761Y-94275714D01*
X126227142Y-94228095D01*
X126131904Y-94180476D01*
X125322380Y-94180476D01*
X126322380Y-93180476D02*
X126322380Y-93751904D01*
X126322380Y-93466190D02*
X125322380Y-93466190D01*
X125465238Y-93561428D01*
X125560476Y-93656666D01*
X125608095Y-93751904D01*
%TO.C,R1*%
X142452380Y-94166666D02*
X141976190Y-94500000D01*
X142452380Y-94738095D02*
X141452380Y-94738095D01*
X141452380Y-94357142D01*
X141500000Y-94261904D01*
X141547619Y-94214285D01*
X141642857Y-94166666D01*
X141785714Y-94166666D01*
X141880952Y-94214285D01*
X141928571Y-94261904D01*
X141976190Y-94357142D01*
X141976190Y-94738095D01*
X142452380Y-93214285D02*
X142452380Y-93785714D01*
X142452380Y-93500000D02*
X141452380Y-93500000D01*
X141595238Y-93595238D01*
X141690476Y-93690476D01*
X141738095Y-93785714D01*
%TO.C,R4*%
X132833333Y-107172380D02*
X132500000Y-106696190D01*
X132261904Y-107172380D02*
X132261904Y-106172380D01*
X132642857Y-106172380D01*
X132738095Y-106220000D01*
X132785714Y-106267619D01*
X132833333Y-106362857D01*
X132833333Y-106505714D01*
X132785714Y-106600952D01*
X132738095Y-106648571D01*
X132642857Y-106696190D01*
X132261904Y-106696190D01*
X133690476Y-106505714D02*
X133690476Y-107172380D01*
X133452380Y-106124761D02*
X133214285Y-106839047D01*
X133833333Y-106839047D01*
%TO.C,H1*%
X116238095Y-73852380D02*
X116238095Y-72852380D01*
X116238095Y-73328571D02*
X116809523Y-73328571D01*
X116809523Y-73852380D02*
X116809523Y-72852380D01*
X117809523Y-73852380D02*
X117238095Y-73852380D01*
X117523809Y-73852380D02*
X117523809Y-72852380D01*
X117428571Y-72995238D01*
X117333333Y-73090476D01*
X117238095Y-73138095D01*
%TO.C,R3*%
X132833333Y-88172380D02*
X132500000Y-87696190D01*
X132261904Y-88172380D02*
X132261904Y-87172380D01*
X132642857Y-87172380D01*
X132738095Y-87220000D01*
X132785714Y-87267619D01*
X132833333Y-87362857D01*
X132833333Y-87505714D01*
X132785714Y-87600952D01*
X132738095Y-87648571D01*
X132642857Y-87696190D01*
X132261904Y-87696190D01*
X133166666Y-87172380D02*
X133785714Y-87172380D01*
X133452380Y-87553333D01*
X133595238Y-87553333D01*
X133690476Y-87600952D01*
X133738095Y-87648571D01*
X133785714Y-87743809D01*
X133785714Y-87981904D01*
X133738095Y-88077142D01*
X133690476Y-88124761D01*
X133595238Y-88172380D01*
X133309523Y-88172380D01*
X133214285Y-88124761D01*
X133166666Y-88077142D01*
%TO.C,D1*%
X139531904Y-74492380D02*
X139531904Y-73492380D01*
X139770000Y-73492380D01*
X139912857Y-73540000D01*
X140008095Y-73635238D01*
X140055714Y-73730476D01*
X140103333Y-73920952D01*
X140103333Y-74063809D01*
X140055714Y-74254285D01*
X140008095Y-74349523D01*
X139912857Y-74444761D01*
X139770000Y-74492380D01*
X139531904Y-74492380D01*
X141055714Y-74492380D02*
X140484285Y-74492380D01*
X140770000Y-74492380D02*
X140770000Y-73492380D01*
X140674761Y-73635238D01*
X140579523Y-73730476D01*
X140484285Y-73778095D01*
%TO.C,J1*%
X116886666Y-84682380D02*
X116886666Y-85396666D01*
X116839047Y-85539523D01*
X116743809Y-85634761D01*
X116600952Y-85682380D01*
X116505714Y-85682380D01*
X117886666Y-85682380D02*
X117315238Y-85682380D01*
X117600952Y-85682380D02*
X117600952Y-84682380D01*
X117505714Y-84825238D01*
X117410476Y-84920476D01*
X117315238Y-84968095D01*
%TO.C,H4*%
X149238095Y-106952380D02*
X149238095Y-105952380D01*
X149238095Y-106428571D02*
X149809523Y-106428571D01*
X149809523Y-106952380D02*
X149809523Y-105952380D01*
X150714285Y-106285714D02*
X150714285Y-106952380D01*
X150476190Y-105904761D02*
X150238095Y-106619047D01*
X150857142Y-106619047D01*
%TO.C,H2*%
X149238095Y-73852380D02*
X149238095Y-72852380D01*
X149238095Y-73328571D02*
X149809523Y-73328571D01*
X149809523Y-73852380D02*
X149809523Y-72852380D01*
X150238095Y-72947619D02*
X150285714Y-72900000D01*
X150380952Y-72852380D01*
X150619047Y-72852380D01*
X150714285Y-72900000D01*
X150761904Y-72947619D01*
X150809523Y-73042857D01*
X150809523Y-73138095D01*
X150761904Y-73280952D01*
X150190476Y-73852380D01*
X150809523Y-73852380D01*
%TO.C,D2*%
X139531904Y-107492380D02*
X139531904Y-106492380D01*
X139770000Y-106492380D01*
X139912857Y-106540000D01*
X140008095Y-106635238D01*
X140055714Y-106730476D01*
X140103333Y-106920952D01*
X140103333Y-107063809D01*
X140055714Y-107254285D01*
X140008095Y-107349523D01*
X139912857Y-107444761D01*
X139770000Y-107492380D01*
X139531904Y-107492380D01*
X140484285Y-106587619D02*
X140531904Y-106540000D01*
X140627142Y-106492380D01*
X140865238Y-106492380D01*
X140960476Y-106540000D01*
X141008095Y-106587619D01*
X141055714Y-106682857D01*
X141055714Y-106778095D01*
X141008095Y-106920952D01*
X140436666Y-107492380D01*
X141055714Y-107492380D01*
%TO.C,R2*%
X148452380Y-94166666D02*
X147976190Y-94500000D01*
X148452380Y-94738095D02*
X147452380Y-94738095D01*
X147452380Y-94357142D01*
X147500000Y-94261904D01*
X147547619Y-94214285D01*
X147642857Y-94166666D01*
X147785714Y-94166666D01*
X147880952Y-94214285D01*
X147928571Y-94261904D01*
X147976190Y-94357142D01*
X147976190Y-94738095D01*
X147547619Y-93785714D02*
X147500000Y-93738095D01*
X147452380Y-93642857D01*
X147452380Y-93404761D01*
X147500000Y-93309523D01*
X147547619Y-93261904D01*
X147642857Y-93214285D01*
X147738095Y-93214285D01*
X147880952Y-93261904D01*
X148452380Y-93833333D01*
X148452380Y-93214285D01*
D13*
%TO.C,SW1*%
X130300000Y-80995000D02*
X125700000Y-80995000D01*
X131000000Y-76850000D02*
X131000000Y-79150000D01*
X125800000Y-75005000D02*
X130300000Y-75005000D01*
X125005000Y-76850000D02*
X125005000Y-79150000D01*
X129755000Y-78000000D02*
G75*
G03*
X129755000Y-78000000I-1755000J0D01*
G01*
D14*
X123655000Y-75750000D02*
G75*
G03*
X123655000Y-75750000I-100000J0D01*
G01*
D13*
%TO.C,SW2*%
X125800000Y-108005000D02*
X130300000Y-108005000D01*
X125005000Y-109850000D02*
X125005000Y-112150000D01*
X130300000Y-113995000D02*
X125700000Y-113995000D01*
X131000000Y-109850000D02*
X131000000Y-112150000D01*
D14*
X123655000Y-108750000D02*
G75*
G03*
X123655000Y-108750000I-100000J0D01*
G01*
D13*
X129755000Y-111000000D02*
G75*
G03*
X129755000Y-111000000I-1755000J0D01*
G01*
D15*
%TO.C,U1*%
X127870000Y-91340000D02*
X127870000Y-92990000D01*
X127870000Y-94990000D02*
X127870000Y-96640000D01*
X127870000Y-96640000D02*
X138150000Y-96640000D01*
X138150000Y-96640000D02*
X138150000Y-91340000D01*
X138150000Y-91340000D02*
X127870000Y-91340000D01*
X127870000Y-94990000D02*
G75*
G03*
X127870000Y-92990000I0J1000000D01*
G01*
%TO.C,R1*%
X146720000Y-98620000D02*
X146720000Y-89380000D01*
X146720000Y-89380000D02*
X143280000Y-89380000D01*
X145000000Y-100580000D02*
X145000000Y-98620000D01*
X145000000Y-87420000D02*
X145000000Y-89380000D01*
X143280000Y-98620000D02*
X146720000Y-98620000D01*
X143280000Y-89380000D02*
X143280000Y-98620000D01*
%TO.C,R4*%
X137620000Y-102280000D02*
X128380000Y-102280000D01*
X128380000Y-102280000D02*
X128380000Y-105720000D01*
X128380000Y-105720000D02*
X137620000Y-105720000D01*
X139580000Y-104000000D02*
X137620000Y-104000000D01*
X137620000Y-105720000D02*
X137620000Y-102280000D01*
X126420000Y-104000000D02*
X128380000Y-104000000D01*
%TO.C,R3*%
X139580000Y-85000000D02*
X137620000Y-85000000D01*
X126420000Y-85000000D02*
X128380000Y-85000000D01*
X128380000Y-83280000D02*
X128380000Y-86720000D01*
X137620000Y-86720000D02*
X137620000Y-83280000D01*
X137620000Y-83280000D02*
X128380000Y-83280000D01*
X128380000Y-86720000D02*
X137620000Y-86720000D01*
%TO.C,D1*%
X137710000Y-76455000D02*
X137710000Y-79545000D01*
X143260000Y-78000462D02*
G75*
G03*
X137710000Y-76455170I-2990000J462D01*
G01*
X137710000Y-79544830D02*
G75*
G03*
X143260000Y-77999538I2560000J1544830D01*
G01*
X142770000Y-78000000D02*
G75*
G03*
X142770000Y-78000000I-2500000J0D01*
G01*
%TO.C,J1*%
X111510000Y-94350000D02*
X120140000Y-94350000D01*
X111510000Y-87380475D02*
X120140000Y-87380475D01*
X120140000Y-87640000D02*
X120490000Y-87640000D01*
X111510000Y-87970950D02*
X120140000Y-87970950D01*
X120140000Y-101060000D02*
X120550000Y-101060000D01*
X111510000Y-87144285D02*
X120140000Y-87144285D01*
X111510000Y-88915710D02*
X120140000Y-88915710D01*
X120140000Y-98520000D02*
X120550000Y-98520000D01*
X120140000Y-95980000D02*
X120550000Y-95980000D01*
X111510000Y-102030000D02*
X120140000Y-102030000D01*
X111510000Y-88207140D02*
X120140000Y-88207140D01*
X120140000Y-100340000D02*
X120550000Y-100340000D01*
X121600000Y-86670000D02*
X122710000Y-86670000D01*
X111510000Y-91810000D02*
X120140000Y-91810000D01*
X111510000Y-86670000D02*
X111510000Y-102030000D01*
X120140000Y-90900000D02*
X120550000Y-90900000D01*
X120140000Y-95260000D02*
X120550000Y-95260000D01*
X111510000Y-89151900D02*
X120140000Y-89151900D01*
X111510000Y-89033805D02*
X120140000Y-89033805D01*
X111510000Y-89270000D02*
X120140000Y-89270000D01*
X111510000Y-87026190D02*
X120140000Y-87026190D01*
X111510000Y-87734760D02*
X120140000Y-87734760D01*
X122710000Y-86670000D02*
X122710000Y-88000000D01*
X120140000Y-92720000D02*
X120550000Y-92720000D01*
X111510000Y-88561425D02*
X120140000Y-88561425D01*
X111510000Y-86908095D02*
X120140000Y-86908095D01*
X111510000Y-87616665D02*
X120140000Y-87616665D01*
X111510000Y-88679520D02*
X120140000Y-88679520D01*
X111510000Y-87262380D02*
X120140000Y-87262380D01*
X111510000Y-99430000D02*
X120140000Y-99430000D01*
X120140000Y-90180000D02*
X120550000Y-90180000D01*
X120140000Y-88360000D02*
X120490000Y-88360000D01*
X111510000Y-87498570D02*
X120140000Y-87498570D01*
X120140000Y-97800000D02*
X120550000Y-97800000D01*
X111510000Y-86670000D02*
X120140000Y-86670000D01*
X111510000Y-87852855D02*
X120140000Y-87852855D01*
X111510000Y-88443330D02*
X120140000Y-88443330D01*
X111510000Y-88325235D02*
X120140000Y-88325235D01*
X120140000Y-93440000D02*
X120550000Y-93440000D01*
X111510000Y-96890000D02*
X120140000Y-96890000D01*
X120140000Y-86670000D02*
X120140000Y-102030000D01*
X111510000Y-88089045D02*
X120140000Y-88089045D01*
X111510000Y-88797615D02*
X120140000Y-88797615D01*
X111510000Y-86790000D02*
X120140000Y-86790000D01*
%TO.C,D2*%
X137710000Y-109455000D02*
X137710000Y-112545000D01*
X143260000Y-111000462D02*
G75*
G03*
X137710000Y-109455170I-2990000J462D01*
G01*
X137710000Y-112544830D02*
G75*
G03*
X143260000Y-110999538I2560000J1544830D01*
G01*
X142770000Y-111000000D02*
G75*
G03*
X142770000Y-111000000I-2500000J0D01*
G01*
%TO.C,R2*%
X152720000Y-89380000D02*
X149280000Y-89380000D01*
X149280000Y-98620000D02*
X152720000Y-98620000D01*
X152720000Y-98620000D02*
X152720000Y-89380000D01*
X149280000Y-89380000D02*
X149280000Y-98620000D01*
X151000000Y-100580000D02*
X151000000Y-98620000D01*
X151000000Y-87420000D02*
X151000000Y-89380000D01*
%TD*%
M02*
