%TF.GenerationSoftware,KiCad,Pcbnew,(6.0.6)*%
%TF.CreationDate,2023-02-06T16:24:35-08:00*%
%TF.ProjectId,PIC10F200 PCB,50494331-3046-4323-9030-205043422e6b,rev?*%
%TF.SameCoordinates,Original*%
%TF.FileFunction,Legend,Bot*%
%TF.FilePolarity,Positive*%
%FSLAX46Y46*%
G04 Gerber Fmt 4.6, Leading zero omitted, Abs format (unit mm)*
G04 Created by KiCad (PCBNEW (6.0.6)) date 2023-02-06 16:24:35*
%MOMM*%
%LPD*%
G01*
G04 APERTURE LIST*
%ADD10C,0.150000*%
%TA.AperFunction,Profile*%
%ADD11C,0.100000*%
%TD*%
G04 APERTURE END LIST*
D10*
X151852380Y-91059272D02*
X152852380Y-91392605D01*
X151852380Y-91725939D01*
X152804761Y-92440225D02*
X152852380Y-92344986D01*
X152852380Y-92154510D01*
X152804761Y-92059272D01*
X152709523Y-92011653D01*
X152328571Y-92011653D01*
X152233333Y-92059272D01*
X152185714Y-92154510D01*
X152185714Y-92344986D01*
X152233333Y-92440225D01*
X152328571Y-92487844D01*
X152423809Y-92487844D01*
X152519047Y-92011653D01*
X152852380Y-92916415D02*
X152185714Y-92916415D01*
X152376190Y-92916415D02*
X152280952Y-92964034D01*
X152233333Y-93011653D01*
X152185714Y-93106891D01*
X152185714Y-93202129D01*
X152757142Y-93535463D02*
X152804761Y-93583082D01*
X152852380Y-93535463D01*
X152804761Y-93487844D01*
X152757142Y-93535463D01*
X152852380Y-93535463D01*
X152852380Y-95297367D02*
X152852380Y-94725939D01*
X152852380Y-95011653D02*
X151852380Y-95011653D01*
X151995238Y-94916415D01*
X152090476Y-94821177D01*
X152138095Y-94725939D01*
X152757142Y-95725939D02*
X152804761Y-95773558D01*
X152852380Y-95725939D01*
X152804761Y-95678320D01*
X152757142Y-95725939D01*
X152852380Y-95725939D01*
X151947619Y-96154510D02*
X151900000Y-96202129D01*
X151852380Y-96297367D01*
X151852380Y-96535463D01*
X151900000Y-96630701D01*
X151947619Y-96678320D01*
X152042857Y-96725939D01*
X152138095Y-96725939D01*
X152280952Y-96678320D01*
X152852380Y-96106891D01*
X152852380Y-96725939D01*
D11*
X111000000Y-111000000D02*
G75*
G03*
X117000000Y-117000000I6000000J0D01*
G01*
X156000000Y-78000000D02*
G75*
G03*
X150000000Y-72000000I-6000000J0D01*
G01*
X150000000Y-117000000D02*
X117000000Y-117000000D01*
X150000000Y-117000000D02*
G75*
G03*
X156000000Y-111000000I0J6000000D01*
G01*
X117000000Y-72000000D02*
G75*
G03*
X111000000Y-78000000I0J-6000000D01*
G01*
X117000000Y-72000000D02*
X150000000Y-72000000D01*
X111000000Y-111000000D02*
X111000000Y-78000000D01*
X156000000Y-78000000D02*
X156000000Y-111000000D01*
D10*
X149312380Y-91337142D02*
X150026666Y-91337142D01*
X150169523Y-91289523D01*
X150264761Y-91194285D01*
X150312380Y-91051428D01*
X150312380Y-90956190D01*
X150312380Y-92289523D02*
X150312380Y-91813333D01*
X149312380Y-91813333D01*
X150217142Y-93194285D02*
X150264761Y-93146666D01*
X150312380Y-93003809D01*
X150312380Y-92908571D01*
X150264761Y-92765714D01*
X150169523Y-92670476D01*
X150074285Y-92622857D01*
X149883809Y-92575238D01*
X149740952Y-92575238D01*
X149550476Y-92622857D01*
X149455238Y-92670476D01*
X149360000Y-92765714D01*
X149312380Y-92908571D01*
X149312380Y-93003809D01*
X149360000Y-93146666D01*
X149407619Y-93194285D01*
X150312380Y-94384761D02*
X149312380Y-94384761D01*
X149312380Y-94765714D01*
X149360000Y-94860952D01*
X149407619Y-94908571D01*
X149502857Y-94956190D01*
X149645714Y-94956190D01*
X149740952Y-94908571D01*
X149788571Y-94860952D01*
X149836190Y-94765714D01*
X149836190Y-94384761D01*
X150217142Y-95956190D02*
X150264761Y-95908571D01*
X150312380Y-95765714D01*
X150312380Y-95670476D01*
X150264761Y-95527619D01*
X150169523Y-95432380D01*
X150074285Y-95384761D01*
X149883809Y-95337142D01*
X149740952Y-95337142D01*
X149550476Y-95384761D01*
X149455238Y-95432380D01*
X149360000Y-95527619D01*
X149312380Y-95670476D01*
X149312380Y-95765714D01*
X149360000Y-95908571D01*
X149407619Y-95956190D01*
X149788571Y-96718095D02*
X149836190Y-96860952D01*
X149883809Y-96908571D01*
X149979047Y-96956190D01*
X150121904Y-96956190D01*
X150217142Y-96908571D01*
X150264761Y-96860952D01*
X150312380Y-96765714D01*
X150312380Y-96384761D01*
X149312380Y-96384761D01*
X149312380Y-96718095D01*
X149360000Y-96813333D01*
X149407619Y-96860952D01*
X149502857Y-96908571D01*
X149598095Y-96908571D01*
X149693333Y-96860952D01*
X149740952Y-96813333D01*
X149788571Y-96718095D01*
X149788571Y-96384761D01*
M02*
