%TF.GenerationSoftware,KiCad,Pcbnew,(6.0.6)*%
%TF.CreationDate,2023-02-06T16:24:35-08:00*%
%TF.ProjectId,PIC10F200 PCB,50494331-3046-4323-9030-205043422e6b,rev?*%
%TF.SameCoordinates,Original*%
%TF.FileFunction,Soldermask,Bot*%
%TF.FilePolarity,Negative*%
%FSLAX46Y46*%
G04 Gerber Fmt 4.6, Leading zero omitted, Abs format (unit mm)*
G04 Created by KiCad (PCBNEW (6.0.6)) date 2023-02-06 16:24:35*
%MOMM*%
%LPD*%
G01*
G04 APERTURE LIST*
%TA.AperFunction,Profile*%
%ADD10C,0.100000*%
%TD*%
%ADD11R,1.498000X1.498000*%
%ADD12C,1.498000*%
%ADD13C,0.800000*%
%ADD14C,7.000000*%
%ADD15R,1.600000X1.600000*%
%ADD16O,1.600000X1.600000*%
%ADD17C,1.600000*%
%ADD18R,1.800000X1.800000*%
%ADD19C,1.800000*%
%ADD20R,1.700000X1.700000*%
%ADD21O,1.700000X1.700000*%
G04 APERTURE END LIST*
D10*
X111000000Y-111000000D02*
G75*
G03*
X117000000Y-117000000I6000000J0D01*
G01*
X156000000Y-78000000D02*
G75*
G03*
X150000000Y-72000000I-6000000J0D01*
G01*
X150000000Y-117000000D02*
X117000000Y-117000000D01*
X150000000Y-117000000D02*
G75*
G03*
X156000000Y-111000000I0J6000000D01*
G01*
X117000000Y-72000000D02*
G75*
G03*
X111000000Y-78000000I0J-6000000D01*
G01*
X117000000Y-72000000D02*
X150000000Y-72000000D01*
X111000000Y-111000000D02*
X111000000Y-78000000D01*
X156000000Y-78000000D02*
X156000000Y-111000000D01*
D11*
%TO.C,SW1*%
X124750000Y-75750000D03*
D12*
X131250000Y-75750000D03*
X124750000Y-80250000D03*
X131250000Y-80250000D03*
%TD*%
D13*
%TO.C,H3*%
X118856155Y-112856155D03*
D14*
X117000000Y-111000000D03*
D13*
X118856155Y-109143845D03*
X114375000Y-111000000D03*
X115143845Y-112856155D03*
X119625000Y-111000000D03*
X115143845Y-109143845D03*
X117000000Y-108375000D03*
X117000000Y-113625000D03*
%TD*%
D11*
%TO.C,SW2*%
X124750000Y-108750000D03*
D12*
X131250000Y-108750000D03*
X124750000Y-113250000D03*
X131250000Y-113250000D03*
%TD*%
D15*
%TO.C,U1*%
X129200000Y-97800000D03*
D16*
X131740000Y-97800000D03*
X134280000Y-97800000D03*
X136820000Y-97800000D03*
X136820000Y-90180000D03*
X134280000Y-90180000D03*
X131740000Y-90180000D03*
X129200000Y-90180000D03*
%TD*%
D17*
%TO.C,R1*%
X145000000Y-101620000D03*
D16*
X145000000Y-86380000D03*
%TD*%
D17*
%TO.C,R4*%
X140620000Y-104000000D03*
D16*
X125380000Y-104000000D03*
%TD*%
D13*
%TO.C,H1*%
X117000000Y-80525000D03*
D14*
X117000000Y-77900000D03*
D13*
X114375000Y-77900000D03*
X118856155Y-76043845D03*
X119625000Y-77900000D03*
X115143845Y-76043845D03*
X118856155Y-79756155D03*
X115143845Y-79756155D03*
X117000000Y-75275000D03*
%TD*%
D17*
%TO.C,R3*%
X140620000Y-85000000D03*
D16*
X125380000Y-85000000D03*
%TD*%
D18*
%TO.C,D1*%
X139000000Y-78000000D03*
D19*
X141540000Y-78000000D03*
%TD*%
D20*
%TO.C,J1*%
X121600000Y-88000000D03*
D21*
X121600000Y-90540000D03*
X121600000Y-93080000D03*
X121600000Y-95620000D03*
X121600000Y-98160000D03*
X121600000Y-100700000D03*
%TD*%
D13*
%TO.C,H4*%
X148143845Y-109143845D03*
X152625000Y-111000000D03*
X150000000Y-113625000D03*
X151856155Y-109143845D03*
X148143845Y-112856155D03*
X147375000Y-111000000D03*
X151856155Y-112856155D03*
D14*
X150000000Y-111000000D03*
D13*
X150000000Y-108375000D03*
%TD*%
%TO.C,H2*%
X151856155Y-79756155D03*
X150000000Y-80525000D03*
X147375000Y-77900000D03*
X148143845Y-79756155D03*
X152625000Y-77900000D03*
X148143845Y-76043845D03*
D14*
X150000000Y-77900000D03*
D13*
X150000000Y-75275000D03*
X151856155Y-76043845D03*
%TD*%
D18*
%TO.C,D2*%
X139000000Y-111000000D03*
D19*
X141540000Y-111000000D03*
%TD*%
D17*
%TO.C,R2*%
X151000000Y-86380000D03*
D16*
X151000000Y-101620000D03*
%TD*%
M02*
